<svg width="1009" height="819" viewBox="0 0 1009 819" fill="none" xmlns="http://www.w3.org/2000/svg">
<g clip-path="url(#clip0_65_3)">
<g opacity="0.5">
<path fill-rule="evenodd" clip-rule="evenodd" d="M983.258 540.156L983.847 540.641L985.288 540.925L987.593 541.033L990.806 540.982L994.995 540.785L1000.25 540.454L1006.7 539.999L1014.45 539.434L1023.66 538.774L1034.45 538.042L1046.92 537.271L1061.12 536.505L1077.01 535.801L1094.4 535.233L1112.93 534.886L1132.02 534.853L1150.86 535.225L1168.44 536.077L1183.62 537.45L1195.27 539.343L1202.46 541.698L1204.56 544.406L1201.41 547.319L1193.32 550.275L1181.03 553.116L1165.54 555.716L1147.97 557.988L1129.43 559.891L1110.84 561.422L1092.93 562.608L1076.22 563.494L1061 564.133L1047.41 564.581L1035.48 564.887L1025.14 565.096L1016.29 565.246L1008.8 565.366L1002.54 565.483L997.378 565.617L993.2 565.784L989.909 566.002L987.425 566.282L985.686 566.641L984.647 567.092L984.28 567.653L984.576 568.341L985.541 569.18L987.199 570.196L989.589 571.419L992.769 572.888L996.812 574.648L1001.81 576.749L1007.86 579.252L1015.08 582.224L1023.58 585.739L1033.47 589.872L1044.82 594.696L1057.66 600.268L1071.92 606.622L1087.43 613.744L1103.84 621.554L1120.62 629.888L1137.02 638.478L1152.14 646.954L1164.97 654.862L1174.5 661.705L1179.89 667.005L1180.61 670.38L1176.53 671.605L1167.95 670.653L1155.58 667.692L1140.36 663.049L1123.36 657.149L1105.59 650.449L1087.92 643.378L1071.03 636.3L1055.38 629.492L1041.22 623.147L1028.67 617.384L1017.72 612.258L1008.3 607.786L1000.3 603.954L993.585 600.733L988.018 598.087L983.48 595.981L979.866 594.385L977.088 593.277L975.084 592.649L973.813 592.504L973.26 592.864L973.417 593.756L974.256 595.194L975.773 597.206L977.987 599.843L980.935 603.171L984.668 607.273L989.254 612.251L994.763 618.214L1001.27 625.282L1008.82 633.568L1017.47 643.166L1027.17 654.128L1037.86 666.435L1049.31 679.962L1061.21 694.441L1073.09 709.43L1084.34 724.311L1094.25 738.301L1102.08 750.527L1107.16 760.118L1108.99 766.342L1107.34 768.724L1102.31 767.128L1094.29 761.782L1083.9 753.226L1071.88 742.209L1059.01 729.571L1045.97 716.121L1033.31 702.561L1021.43 689.438L1010.58 677.138L1000.86 665.899L992.316 655.837L984.899 646.981L978.53 639.301L973.112 632.73L968.54 627.183L964.711 622.573L961.535 618.813L958.927 615.829L956.819 613.555L955.151 611.942L953.877 610.952L952.958 610.563L952.369 610.768L952.088 611.575L952.106 613.005L952.417 615.099L953.024 617.909L953.933 621.51L955.157 625.99L956.713 631.455L958.618 638.026L960.888 645.837L963.537 655.02L966.567 665.702L969.965 677.978L973.695 691.888L977.683 707.376L981.815 724.257L985.926 742.165L989.8 760.527L993.177 778.549L995.775 795.248L997.323 809.53L997.601 820.32L996.483 826.721L993.965 828.166L990.172 824.527L985.345 816.137L979.798 803.731L973.873 788.305L967.887 770.965L962.104 752.77L956.717 734.627L951.842 717.235L947.534 701.072L943.794 686.422L940.593 673.408L937.882 662.043L935.599 652.261L933.685 643.956L932.08 637.007L930.732 631.287L929.593 626.682L928.623 623.097L927.784 620.455L927.047 618.707L926.382 617.832L925.764 617.837L925.167 618.726L924.564 620.489L923.928 623.15L923.232 626.759L922.446 631.393L921.537 637.151L920.465 644.149L919.189 652.516L917.658 662.38L915.821 673.851L913.621 687L911.009 701.823L907.944 718.205L904.407 735.869L900.413 754.343L896.027 772.93L891.366 790.719L886.614 806.639L882.004 819.563L877.799 828.463L874.259 832.572L871.601 831.521L869.964 825.412L869.391 814.791L869.825 800.554L871.132 783.785L873.124 765.596L875.593 746.996L878.341 728.802L881.194 711.613L884.012 695.811L886.694 681.599L889.17 669.04L891.4 658.101L893.363 648.688L895.051 640.679L896.467 633.937L897.619 628.33L898.513 623.734L899.159 620.042L899.563 617.164L899.725 615.026L899.645 613.572L899.315 612.764L898.722 612.579L897.847 613.011L896.663 614.068L895.136 615.775L893.22 618.171L890.863 621.31L887.998 625.262L884.551 630.108L880.436 635.938L875.558 642.85L869.82 650.935L863.127 660.268L855.402 670.886L846.601 682.769L836.738 695.801L825.909 709.743L814.327 724.197L802.34 738.596L790.439 752.204L779.244 764.166L769.454 773.588L761.76 779.661L756.751 781.789L754.808 779.702L756.043 773.512L760.276 763.698L767.076 751.018L775.844 736.387L785.907 720.733L796.615 704.894L807.404 689.541L817.832 675.155L827.589 662.034L836.484 650.323L844.42 640.054L851.373 631.176L857.365 623.596L862.445 617.195L866.676 611.852L870.12 607.448L872.837 603.88L874.873 601.058L876.26 598.913L877.014 597.393L877.128 596.469L876.576 596.128L875.346 596.346L873.423 597.101L870.766 598.391L867.314 600.23L862.984 602.644L857.672 605.672L851.26 609.357L843.619 613.746L834.621 618.876L824.149 624.771L812.128 631.424L798.546 638.778L783.499 646.712L767.229 655.018L750.163 663.388L732.935 671.415L716.375 678.607L701.462 684.433L689.221 688.389L680.585 690.071L676.243 689.252L676.524 685.928L681.333 680.324L690.18 672.855L702.269 664.055L716.644 654.495L732.326 644.708L748.427 635.135L764.228 626.099L779.2 617.812L793 610.38L805.44 603.833L816.454 598.146L826.058 593.259L834.322 589.095L841.345 585.571L847.233 582.604L852.095 580.12L856.029 578.05L859.122 576.335L861.442 574.926L863.046 573.781L863.972 572.864L864.241 572.148L863.859 571.61L862.815 571.231L861.081 570.998L858.613 570.897L855.348 570.921L851.205 571.06L846.087 571.307L839.877 571.653L832.45 572.087L823.67 572.594L813.406 573.152L801.548 573.735L788.032 574.3L772.869 574.798L756.19 575.165L738.286 575.324L719.648 575.193L700.994 574.691L683.252 573.75L667.506 572.329L654.889 570.429L646.424 568.098L642.863 565.437L644.548 562.585L651.344 559.701L662.665 556.938L677.579 554.427L694.969 552.256L713.699 550.468L732.747 549.066L751.287 548.021L768.725 547.283L784.684 546.794L798.97 546.495L811.531 546.332L822.407 546.257L831.697 546.229L839.529 546.216L846.037 546.191L851.351 546.132L855.583 546.019L858.827 545.834L861.153 545.559L862.602 545.173L863.187 544.652L862.901 543.966L861.759 543.092L859.762 542.003L856.881 540.665L853.059 539.036L848.218 537.065L842.261 534.694L835.076 531.856L826.548 528.476L816.569 524.477L805.059 519.786L791.989 514.34L777.423 508.107L761.55 501.097L744.726 493.388L727.508 485.144L710.658 476.633L695.116 468.221L681.921 460.362L672.088 453.546L666.457 448.238L665.549 444.808L669.465 443.467L677.87 444.235L690.05 446.943L705.049 451.272L721.814 456.813L739.34 463.13L756.775 469.815L773.463 476.525L788.962 482.998L803.015 489.049L815.513 494.567L826.458 499.495L835.92 503.819L844.011 507.549L850.858 510.714L856.594 513.348L861.341 515.488L865.211 517.169L868.299 518.418L870.686 519.259L872.432 519.706L873.587 519.766L874.182 519.436L874.235 518.704L873.75 517.546L872.718 515.931L871.118 513.811L868.914 511.131L866.06 507.817L862.498 503.785L858.162 498.937L852.98 493.164L846.881 486.35L839.801 478.381L831.704 469.158L822.589 458.616L812.523 446.749L801.661 433.645L790.274 419.518L778.765 404.744L767.678 389.873L757.669 375.631L749.454 362.862L743.723 352.451L741.034 345.198L741.716 341.692L745.798 342.203L752.999 346.637L762.778 354.553L774.421 365.251L787.159 377.89L800.268 391.616L813.141 405.657L825.325 419.388L836.524 432.355L846.577 444.262L855.435 454.953L863.122 464.372L869.709 472.537L875.295 479.508L879.985 485.369L883.884 490.207L887.085 494.11L889.673 497.149L891.716 499.383L893.267 500.849L894.367 501.561L895.038 501.507L895.299 500.667L895.181 499.039L894.7 496.6L893.862 493.298L892.663 489.06L891.093 483.786L889.134 477.359L886.772 469.648L883.992 460.516L880.79 449.834L877.179 437.502L873.197 423.478L868.919 407.815L864.466 390.707L860.013 372.529L855.793 353.872L852.082 335.551L849.181 318.571L847.378 304.041L846.906 293.038L847.898 286.451L850.356 284.82L854.148 288.248L859.023 296.375L864.656 308.459L870.696 323.504L876.817 340.425L882.749 358.189L888.294 375.917L893.332 392.935L897.806 408.781L901.708 423.183L905.067 436.02L907.93 447.278L910.354 457.019L912.401 465.344L914.128 472.374L915.588 478.232L916.829 483.037L917.891 486.893L918.81 489.889L919.617 492.096L920.339 493.569L921 494.344L921.621 494.442L922.224 493.864L922.828 492.595L923.454 490.604L924.124 487.84L924.862 484.236L925.697 479.707L926.659 474.151L927.785 467.452L929.116 459.483L930.701 450.118L932.589 439.241L934.834 426.77L937.487 412.684L940.59 397.058L944.167 380.103L948.21 362.212L952.666 343.987L957.429 326.249L962.327 309.998L967.133 296.337L971.58 286.333L975.393 280.862L978.328 280.451L980.212 285.18L980.968 294.66L980.628 308.109L979.314 324.485L977.216 342.657L974.555 361.549L971.552 380.254L968.406 398.082L965.277 414.571L962.288 429.458L959.519 442.637L957.024 454.118L954.827 463.982L952.939 472.349L951.36 479.357L950.083 485.14L949.102 489.823L948.41 493.511L948.009 496.289L947.904 498.216L948.11 499.325L948.655 499.62L949.564 499.11L950.857 497.815L952.567 495.726L954.739 492.81L957.435 489.013L960.726 484.26L964.697 478.464L969.443 471.527L975.063 463.357L981.653 453.874L989.294 443.038L998.032 430.87L1007.86 417.488L1018.67 403.142L1030.25 388.245L1042.26 373.39L1054.18 359.34L1065.41 346.978L1075.24 337.218L1082.98 330.879L1088.06 328.55L1090.13 330.484L1089.07 336.545L1085.09 346.233L1078.61 358.775L1070.23 373.257L1060.58 388.754L1050.3 404.444L1039.93 419.669L1029.89 433.958L1020.47 447.02L1011.86 458.713L1004.15 469.005L997.356 477.943L991.472 485.617L986.445 492.141L982.216 497.637L978.72 502.222L975.896 506.002L973.69 509.073L972.057 511.514L970.963 513.391L970.385 514.754L970.312 515.644L970.746 516.085L971.701 516.093L973.203 515.671L975.296 514.814L978.035 513.506L981.491 511.72L985.752 509.425L990.921 506.579L997.115 503.138L1004.46 499.056L1013.08 494.292L1023.1 488.819L1034.61 482.635L1047.63 475.777L1062.12 468.34L1077.88 460.494L1094.56 452.502L1111.6 444.719L1128.26 437.592L1143.61 431.622L1156.63 427.311L1166.34 425.092L1171.95 425.253L1172.98 427.882L1169.36 432.836L1161.44 439.771L1149.94 448.193L1135.78 457.541L1119.97 467.268L1103.46 476.899L1087.06 486.068L1071.39 494.531L1056.86 502.149L1043.71 508.871L1032.05 514.71L1021.87 519.719L1013.13 523.973L1005.73 527.558L999.555 530.555L994.499 533.045L990.466 535.096L987.372 536.767L985.158 538.109L983.788 539.162L983.251 539.954L983.258 540.156Z" fill="#597D64"/>
<path fill-rule="evenodd" clip-rule="evenodd" d="M670.165 406.452L670.335 408.677L670.375 410.917L670.288 413.169L670.073 415.428L669.732 417.689L669.267 419.948L668.681 422.199L667.978 424.44L667.161 426.664L666.234 428.869L665.203 431.05L664.072 433.203L662.847 435.326L661.535 437.415L660.141 439.467L658.672 441.48L657.135 443.452L655.536 445.381L653.883 447.264L652.179 449.102L650.433 450.893L648.649 452.636L646.831 454.331L644.987 455.977L643.119 457.575L641.233 459.124L639.333 460.626L637.423 462.08L635.506 463.486L633.586 464.847L631.666 466.162L629.749 467.432L627.838 468.658L625.937 469.842L624.048 470.985L622.174 472.089L620.318 473.154L618.483 474.183L616.673 475.178L614.889 476.14L613.134 477.072L611.412 477.976L609.724 478.854L608.073 479.709L606.461 480.542L604.89 481.357L603.361 482.156L601.877 482.942L600.438 483.717L599.046 484.483L597.702 485.244L596.406 486.001L595.159 486.758L593.963 487.517L592.815 488.28L591.718 489.05L590.67 489.829L589.671 490.619L588.721 491.422L587.819 492.241L586.964 493.077L586.155 493.933L585.391 494.809L584.671 495.708L583.992 496.631L583.355 497.58L582.756 498.556L582.194 499.559L581.667 500.592L581.174 501.654L580.712 502.747L580.28 503.872L579.875 505.028L579.494 506.216L579.137 507.437L578.8 508.691L578.481 509.977L578.178 511.295L577.89 512.646L577.612 514.029L577.344 515.444L577.083 516.889L576.827 518.365L576.573 519.87L576.319 521.404L576.064 522.965L575.804 524.553L575.539 526.167L575.265 527.804L574.981 529.464L574.685 531.146L574.375 532.847L574.049 534.567L573.705 536.302L573.343 538.053L572.959 539.817L572.553 541.592L572.124 543.377L571.67 545.17L571.189 546.97L570.682 548.774L570.147 550.582L569.584 552.393L568.992 554.204L568.37 556.015L567.718 557.824L567.034 559.631L566.32 561.433L565.575 563.23L564.798 565.021L563.989 566.804L563.148 568.578L562.274 570.343L561.368 572.095L560.429 573.834L559.456 575.558L558.45 577.264L557.409 578.95L556.334 580.613L555.223 582.249L554.078 583.856L552.897 585.432L551.681 586.972L550.43 588.476L549.145 589.939L547.825 591.359L546.471 592.733L545.083 594.06L543.664 595.337L542.212 596.562L540.731 597.733L539.219 598.848L537.68 599.907L536.113 600.909L534.521 601.852L532.905 602.735L531.266 603.56L529.606 604.325L527.927 605.031L526.229 605.678L524.515 606.267L522.785 606.799L521.042 607.275L519.287 607.696L517.52 608.064L515.745 608.38L513.961 608.646L512.17 608.863L510.373 609.035L508.571 609.162L506.766 609.247L504.957 609.293L503.146 609.301L501.333 609.274L499.519 609.214L497.704 609.123L495.889 609.004L494.073 608.859L492.258 608.69L490.443 608.5L488.628 608.29L486.813 608.062L484.997 607.819L483.182 607.563L481.365 607.294L479.547 607.015L477.728 606.728L475.907 606.434L474.083 606.133L472.255 605.828L470.424 605.519L468.588 605.207L466.747 604.894L464.901 604.578L463.047 604.262L461.187 603.944L459.319 603.626L457.442 603.307L455.557 602.987L453.662 602.666L451.757 602.343L449.842 602.017L447.916 601.688L445.979 601.354L444.031 601.015L442.071 600.669L440.101 600.315L438.119 599.951L436.127 599.575L434.124 599.186L432.112 598.782L430.09 598.36L428.06 597.92L426.022 597.457L423.978 596.971L421.928 596.458L419.877 595.915L417.824 595.339L415.773 594.725L413.727 594.07L411.69 593.37L409.663 592.621L407.652 591.819L405.659 590.962L403.69 590.044L401.748 589.062L399.838 588.014L397.964 586.897L396.132 585.707L394.345 584.444L392.609 583.103L390.928 581.685L389.306 580.188L387.749 578.611L386.261 576.953L384.846 575.216L383.508 573.399L382.251 571.504L381.078 569.531L379.994 567.483L378.999 565.363L378.098 563.172L377.293 560.914L376.584 558.593L375.973 556.213L375.462 553.777L375.049 551.29L374.736 548.757L374.521 546.184L374.403 543.575L374.381 540.935L374.452 538.271L374.613 535.588L374.861 532.891L375.193 530.187L375.604 527.481L376.09 524.777L376.645 522.083L377.265 519.403L377.944 516.742L378.675 514.105L379.452 511.496L380.269 508.921L381.119 506.382L381.994 503.884L382.888 501.429L383.794 499.021L384.704 496.663L385.611 494.355L386.508 492.101L387.388 489.9L388.243 487.755L389.068 485.665L389.856 483.63L390.6 481.65L391.294 479.724L391.933 477.851L392.511 476.029L393.023 474.256L393.466 472.531L393.834 470.849L394.125 469.209L394.335 467.608L394.461 466.041L394.502 464.506L394.455 462.998L394.321 461.514L394.097 460.05L393.785 458.602L393.385 457.165L392.897 455.736L392.325 454.311L391.669 452.884L390.932 451.454L390.118 450.015L389.231 448.564L388.274 447.097L387.254 445.612L386.174 444.105L385.04 442.573L383.86 441.014L382.639 439.425L381.384 437.806L380.101 436.153L378.8 434.467L377.486 432.746L376.169 430.991L374.856 429.2L373.555 427.375L372.275 425.516L371.022 423.625L369.804 421.703L368.628 419.752L367.501 417.774L366.429 415.772L365.416 413.747L364.468 411.703L363.59 409.643L362.785 407.569L362.057 405.486L361.409 403.395L360.845 401.3L360.367 399.205L359.977 397.114L359.676 395.029L359.466 392.953L359.348 390.891L359.321 388.846L359.385 386.82L359.541 384.816L359.788 382.838L360.125 380.888L360.549 378.969L361.06 377.083L361.656 375.233L362.334 373.421L363.092 371.649L363.928 369.918L364.838 368.229L365.819 366.585L366.868 364.987L367.982 363.434L369.158 361.928L370.39 360.469L371.677 359.058L373.014 357.693L374.397 356.376L375.823 355.105L377.287 353.88L378.786 352.7L380.316 351.564L381.873 350.471L383.454 349.418L385.055 348.406L386.672 347.432L388.303 346.493L389.943 345.59L391.59 344.719L393.242 343.878L394.894 343.065L396.546 342.279L398.193 341.516L399.835 340.776L401.469 340.055L403.094 339.352L404.707 338.664L406.309 337.99L407.897 337.329L409.471 336.677L411.03 336.034L412.573 335.399L414.102 334.769L415.614 334.144L417.112 333.523L418.594 332.906L420.062 332.291L421.516 331.679L422.957 331.069L424.385 330.461L425.803 329.856L427.21 329.254L428.607 328.656L429.997 328.062L431.379 327.473L432.755 326.889L434.126 326.312L435.492 325.742L436.855 325.18L438.215 324.627L439.572 324.083L440.928 323.549L442.283 323.025L443.636 322.511L444.988 322.006L446.337 321.51L447.685 321.021L449.03 320.537L450.371 320.055L451.707 319.574L453.039 319.089L454.364 318.598L455.683 318.098L456.994 317.584L458.298 317.052L459.594 316.499L460.88 315.921L462.159 315.313L463.429 314.671L464.691 313.993L465.946 313.274L467.194 312.511L468.436 311.702L469.675 310.843L470.911 309.934L472.145 308.972L473.38 307.956L474.618 306.884L475.86 305.757L477.109 304.573L478.366 303.334L479.635 302.038L480.916 300.689L482.214 299.286L483.529 297.831L484.864 296.328L486.222 294.778L487.605 293.184L489.014 291.55L490.452 289.881L491.921 288.18L493.422 286.451L494.958 284.701L496.528 282.935L498.136 281.158L499.781 279.377L501.464 277.597L503.187 275.826L504.949 274.071L506.749 272.338L508.589 270.636L510.467 268.97L512.382 267.349L514.333 265.78L516.319 264.271L518.338 262.829L520.387 261.46L522.464 260.173L524.568 258.974L526.693 257.87L528.838 256.867L530.999 255.972L533.173 255.189L535.355 254.524L537.541 253.982L539.727 253.567L541.91 253.284L544.084 253.134L546.245 253.121L548.389 253.247L550.511 253.513L552.607 253.92L554.673 254.468L556.704 255.156L558.696 255.984L560.646 256.948L562.55 258.048L564.404 259.279L566.205 260.638L567.951 262.121L569.639 263.722L571.266 265.437L572.832 267.259L574.334 269.183L575.772 271.202L577.144 273.309L578.451 275.498L579.692 277.76L580.868 280.09L581.979 282.478L583.027 284.919L584.014 287.403L584.941 289.923L585.811 292.469L586.628 295.035L587.395 297.61L588.117 300.187L588.797 302.758L589.44 305.314L590.053 307.848L590.639 310.352L591.204 312.821L591.754 315.247L592.295 317.626L592.831 319.953L593.369 322.223L593.913 324.432L594.47 326.577L595.044 328.656L595.642 330.665L596.268 332.604L596.927 334.471L597.625 336.265L598.365 337.987L599.152 339.637L599.99 341.216L600.883 342.726L601.833 344.168L602.844 345.545L603.918 346.86L605.057 348.117L606.262 349.319L607.534 350.469L608.874 351.573L610.282 352.636L611.757 353.662L613.298 354.656L614.903 355.624L616.57 356.572L618.296 357.505L620.079 358.428L621.913 359.348L623.795 360.27L625.72 361.2L627.682 362.142L629.677 363.104L631.697 364.089L633.737 365.103L635.79 366.15L637.848 367.234L639.905 368.36L641.953 369.531L643.984 370.751L645.991 372.022L647.965 373.346L649.9 374.726L651.788 376.163L653.62 377.659L655.39 379.213L657.09 380.826L658.713 382.498L660.253 384.228L661.703 386.014L663.057 387.856L664.309 389.75L665.455 391.695L666.49 393.688L667.409 395.725L668.209 397.803L668.887 399.919L669.44 402.069L669.866 404.248L670.165 406.452Z" fill="#284A34"/>
<path fill-rule="evenodd" clip-rule="evenodd" d="M570.903 918.844L569.336 918.584L567.775 918.311L566.221 918.028L564.673 917.734L563.132 917.431L561.597 917.118L560.068 916.796L558.546 916.466L557.029 916.127L555.519 915.781L554.014 915.427L552.516 915.064L551.023 914.693L549.536 914.314L548.054 913.926L546.579 913.528L545.109 913.12L543.645 912.7L542.188 912.268L540.737 911.822L539.294 911.36L537.858 910.88L536.432 910.381L535.014 909.861L533.607 909.319L532.211 908.751L530.827 908.157L529.457 907.535L528.102 906.884L526.763 906.2L525.441 905.485L524.138 904.735L522.854 903.951L521.592 903.132L520.353 902.277L519.137 901.387L517.946 900.46L516.781 899.498L515.644 898.499L514.534 897.465L513.455 896.395L512.406 895.29L511.389 894.151L510.404 892.978L509.453 891.773L508.536 890.535L507.654 889.267L506.808 887.969L505.997 886.643L505.224 885.29L504.486 883.912L503.786 882.51L503.123 881.086L502.496 879.643L501.906 878.182L501.351 876.705L500.832 875.215L500.348 873.713L499.897 872.203L499.479 870.686L499.092 869.164L498.735 867.641L498.407 866.119L498.105 864.599L497.828 863.085L497.575 861.579L497.342 860.083L497.127 858.599L496.929 857.13L496.745 855.677L496.573 854.243L496.409 852.829L496.251 851.437L496.097 850.069L495.944 848.727L495.788 847.412L495.627 846.124L495.459 844.866L495.28 843.638L495.088 842.44L494.879 841.274L494.652 840.14L494.403 839.038L494.131 837.968L493.831 836.93L493.503 835.924L493.144 834.949L492.751 834.005L492.323 833.092L491.857 832.207L491.353 831.351L490.809 830.521L490.222 829.717L489.593 828.937L488.92 828.18L488.203 827.443L487.441 826.725L486.634 826.024L485.781 825.338L484.884 824.665L483.942 824.002L482.957 823.347L481.93 822.698L480.861 822.053L479.752 821.409L478.606 820.763L477.424 820.115L476.208 819.461L474.961 818.798L473.685 818.126L472.383 817.442L471.057 816.744L469.709 816.03L468.343 815.299L466.96 814.55L465.563 813.78L464.154 812.989L462.737 812.175L461.314 811.338L459.887 810.476L458.459 809.588L457.031 808.675L455.608 807.735L454.191 806.767L452.783 805.772L451.385 804.75L450 803.699L448.63 802.619L447.278 801.512L445.944 800.377L444.631 799.214L443.341 798.023L442.076 796.805L440.837 795.56L439.627 794.289L438.447 792.992L437.299 791.669L436.184 790.321L435.106 788.95L434.064 787.555L433.062 786.138L432.099 784.699L431.179 783.24L430.303 781.761L429.471 780.264L428.686 778.749L427.948 777.219L427.258 775.673L426.618 774.114L426.029 772.542L425.49 770.959L425.004 769.366L424.569 767.764L424.188 766.155L423.86 764.541L423.585 762.922L423.364 761.299L423.196 759.675L423.081 758.05L423.02 756.426L423.012 754.804L423.056 753.186L423.152 751.572L423.299 749.963L423.498 748.362L423.746 746.768L424.044 745.183L424.389 743.609L424.782 742.045L425.222 740.494L425.706 738.955L426.235 737.43L426.807 735.919L427.42 734.424L428.073 732.944L428.766 731.481L429.497 730.035L430.264 728.606L431.066 727.195L431.902 725.802L432.77 724.428L433.669 723.074L434.598 721.738L435.555 720.421L436.538 719.124L437.548 717.847L438.581 716.589L439.638 715.352L440.717 714.133L441.816 712.935L442.934 711.756L444.071 710.596L445.226 709.456L446.396 708.336L447.583 707.235L448.784 706.153L449.999 705.091L451.227 704.048L452.468 703.023L453.721 702.018L454.985 701.032L456.259 700.066L457.545 699.118L458.839 698.188L460.143 697.278L461.455 696.386L462.775 695.512L464.101 694.656L465.432 693.816L466.769 692.993L468.11 692.186L469.453 691.394L470.799 690.617L472.146 689.852L473.493 689.1L474.839 688.359L476.183 687.628L477.524 686.907L478.863 686.193L480.196 685.485L481.525 684.782L482.847 684.083L484.163 683.386L485.471 682.689L486.772 681.991L488.064 681.291L489.348 680.588L490.623 679.88L491.89 679.166L493.148 678.445L494.398 677.717L495.641 676.982L496.877 676.237L498.106 675.484L499.33 674.721L500.549 673.95L501.764 673.17L502.976 672.381L504.186 671.584L505.396 670.779L506.606 669.968L507.817 669.151L509.031 668.33L510.249 667.505L511.471 666.678L512.7 665.851L513.935 665.026L515.179 664.203L516.432 663.385L517.694 662.575L518.968 661.773L520.254 660.983L521.551 660.206L522.862 659.445L524.186 658.703L525.525 657.981L526.877 657.282L528.244 656.609L529.625 655.963L531.021 655.349L532.431 654.766L533.856 654.219L535.294 653.71L536.746 653.24L538.21 652.812L539.686 652.428L541.174 652.089L542.671 651.799L544.178 651.558L545.693 651.368L547.215 651.231L548.743 651.147L550.275 651.119L551.81 651.146L553.346 651.23L554.883 651.372L556.417 651.571L557.949 651.828L559.476 652.143L560.996 652.516L562.508 652.947L564.01 653.434L565.502 653.978L566.98 654.576L568.444 655.229L569.892 655.935L571.323 656.693L572.736 657.501L574.128 658.356L575.499 659.259L576.848 660.206L578.174 661.195L579.476 662.225L580.752 663.293L582.002 664.396L583.226 665.532L584.423 666.699L585.593 667.893L586.735 669.113L587.849 670.354L588.934 671.615L589.993 672.893L591.023 674.183L592.026 675.484L593.003 676.792L593.954 678.104L594.879 679.417L595.78 680.727L596.658 682.033L597.514 683.33L598.35 684.616L599.165 685.889L599.964 687.144L600.746 688.38L601.513 689.593L602.269 690.781L603.014 691.943L603.751 693.074L604.481 694.173L605.207 695.239L605.932 696.269L606.657 697.262L607.384 698.217L608.116 699.132L608.855 700.007L609.603 700.842L610.362 701.635L611.134 702.387L611.92 703.097L612.724 703.767L613.545 704.396L614.387 704.986L615.25 705.538L616.135 706.053L617.044 706.531L617.977 706.977L618.936 707.39L619.92 707.773L620.931 708.128L621.967 708.459L623.03 708.767L624.118 709.055L625.231 709.325L626.369 709.582L627.53 709.827L628.713 710.064L629.917 710.296L631.14 710.526L632.38 710.757L633.636 710.992L634.905 711.234L636.185 711.487L637.473 711.752L638.766 712.033L640.063 712.332L641.36 712.653L642.653 712.997L643.941 713.367L645.219 713.766L646.485 714.194L647.736 714.654L648.968 715.148L650.177 715.676L651.361 716.241L652.517 716.843L653.641 717.483L654.73 718.162L655.782 718.88L656.793 719.638L657.761 720.434L658.683 721.27L659.557 722.144L660.38 723.057L661.15 724.007L661.866 724.993L662.526 726.015L663.128 727.07L663.671 728.158L664.154 729.276L664.577 730.423L664.938 731.597L665.239 732.796L665.479 734.017L665.659 735.259L665.779 736.52L665.84 737.796L665.844 739.085L665.792 740.386L665.685 741.696L665.527 743.012L665.319 744.331L665.063 745.653L664.763 746.974L664.422 748.292L664.043 749.605L663.629 750.911L663.184 752.208L662.712 753.495L662.217 754.769L661.702 756.03L661.172 757.275L660.631 758.504L660.082 759.717L659.53 760.911L658.977 762.087L658.429 763.245L657.889 764.383L657.359 765.502L656.843 766.603L656.344 767.685L655.864 768.75L655.406 769.797L654.972 770.827L654.564 771.842L654.185 772.841L653.836 773.827L653.519 774.8L653.236 775.762L652.988 776.713L652.776 777.655L652.602 778.59L652.466 779.519L652.369 780.443L652.312 781.363L652.294 782.282L652.316 783.201L652.378 784.121L652.48 785.044L652.62 785.971L652.8 786.904L653.017 787.845L653.271 788.794L653.562 789.753L653.887 790.724L654.246 791.707L654.636 792.704L655.057 793.716L655.507 794.744L655.983 795.789L656.485 796.852L657.009 797.934L657.553 799.035L658.116 800.156L658.695 801.297L659.288 802.459L659.892 803.643L660.505 804.848L661.123 806.074L661.746 807.322L662.369 808.592L662.991 809.882L663.609 811.193L664.221 812.525L664.823 813.877L665.414 815.247L665.991 816.637L666.552 818.044L667.094 819.468L667.615 820.909L668.114 822.364L668.588 823.833L669.035 825.316L669.454 826.81L669.843 828.315L670.2 829.829L670.525 831.352L670.815 832.881L671.07 834.417L671.288 835.958L671.47 837.501L671.613 839.047L671.718 840.595L671.784 842.142L671.811 843.688L671.798 845.232L671.746 846.772L671.653 848.309L671.521 849.84L671.349 851.364L671.137 852.882L670.886 854.392L670.597 855.893L670.269 857.384L669.904 858.866L669.501 860.336L669.062 861.796L668.588 863.244L668.079 864.68L667.537 866.105L666.962 867.518L666.357 868.92L665.723 870.31L665.06 871.689L664.369 873.058L663.653 874.417L662.912 875.766L662.148 877.105L661.36 878.435L660.55 879.757L659.719 881.07L658.867 882.374L657.994 883.67L657.1 884.957L656.187 886.234L655.253 887.502L654.298 888.76L653.322 890.006L652.326 891.24L651.308 892.462L650.269 893.67L649.209 894.863L648.127 896.041L647.023 897.203L645.898 898.347L644.751 899.473L643.582 900.58L642.391 901.665L641.178 902.73L639.944 903.772L638.687 904.789L637.409 905.783L636.11 906.75L634.79 907.69L633.449 908.602L632.088 909.486L630.706 910.34L629.305 911.162L627.885 911.954L626.447 912.713L624.991 913.439L623.518 914.131L622.028 914.79L620.523 915.413L619.003 916.002L617.469 916.555L615.922 917.072L614.363 917.554L612.792 918L611.211 918.41L609.621 918.785L608.023 919.124L606.416 919.428L604.804 919.698L603.186 919.933L601.563 920.135L599.937 920.304L598.308 920.44L596.677 920.546L595.045 920.621L593.413 920.667L591.782 920.684L590.152 920.674L588.524 920.638L586.899 920.577L585.277 920.492L583.659 920.384L582.045 920.254L580.437 920.105L578.833 919.936L577.235 919.749L575.643 919.545L574.056 919.326L572.476 919.092L570.903 918.844Z" fill="#7D7455"/>
<path fill-rule="evenodd" clip-rule="evenodd" d="M754.099 66.6887L755.555 68.2332L756.996 69.8075L758.42 71.4115L759.827 73.045L761.214 74.7075L762.582 76.3988L763.928 78.1184L765.252 79.8659L766.552 81.6411L767.826 83.4433L769.073 85.272L770.292 87.1267L771.48 89.0068L772.636 90.9115L773.759 92.8401L774.845 94.7917L775.894 96.7655L776.904 98.7604L777.873 100.775L778.798 102.809L779.679 104.86L780.514 106.928L781.3 109.011L782.036 111.106L782.721 113.214L783.353 115.332L783.93 117.458L784.451 119.591L784.916 121.729L785.322 123.87L785.668 126.012L785.955 128.153L786.181 130.291L786.344 132.424L786.446 134.551L786.484 136.668L786.46 138.775L786.372 140.868L786.22 142.946L786.005 145.008L785.727 147.05L785.385 149.071L784.981 151.07L784.516 153.043L783.989 154.99L783.402 156.909L782.757 158.798L782.054 160.656L781.296 162.482L780.484 164.273L779.619 166.03L778.705 167.751L777.743 169.435L776.736 171.082L775.686 172.69L774.595 174.261L773.466 175.793L772.303 177.286L771.107 178.741L769.882 180.158L768.631 181.537L767.357 182.879L766.062 184.185L764.75 185.456L763.424 186.692L762.087 187.896L760.742 189.068L759.391 190.21L758.038 191.324L756.686 192.411L755.336 193.474L753.993 194.514L752.658 195.534L751.333 196.535L750.022 197.52L748.726 198.491L747.447 199.45L746.187 200.4L744.948 201.343L743.731 202.281L742.538 203.217L741.369 204.153L740.226 205.09L739.11 206.033L738.02 206.981L736.958 207.938L735.923 208.905L734.916 209.884L733.936 210.876L732.983 211.884L732.056 212.908L731.155 213.949L730.278 215.009L729.425 216.088L728.595 217.188L727.786 218.307L726.996 219.448L726.224 220.609L725.468 221.791L724.727 222.994L723.999 224.217L723.282 225.46L722.574 226.722L721.872 228.001L721.176 229.297L720.482 230.609L719.789 231.935L719.095 233.273L718.397 234.622L717.694 235.979L716.984 237.344L716.264 238.713L715.532 240.084L714.787 241.455L714.028 242.823L713.252 244.187L712.457 245.543L711.643 246.888L710.807 248.221L709.949 249.539L709.068 250.838L708.162 252.117L707.231 253.373L706.274 254.603L705.29 255.806L704.279 256.979L703.241 258.12L702.176 259.226L701.083 260.298L699.963 261.332L698.817 262.327L697.643 263.281L696.443 264.193L695.217 265.061L693.966 265.884L692.689 266.661L691.389 267.389L690.064 268.068L688.717 268.697L687.347 269.275L685.957 269.8L684.545 270.271L683.115 270.689L681.666 271.051L680.2 271.358L678.718 271.609L677.221 271.803L675.71 271.94L674.187 272.02L672.652 272.042L671.107 272.007L669.554 271.916L667.993 271.766L666.426 271.561L664.854 271.298L663.279 270.98L661.702 270.607L660.124 270.178L658.547 269.696L656.972 269.161L655.401 268.574L653.833 267.936L652.272 267.248L650.718 266.511L649.171 265.727L647.635 264.897L646.109 264.023L644.594 263.105L643.092 262.146L641.604 261.147L640.13 260.109L638.672 259.035L637.23 257.927L635.806 256.785L634.399 255.612L633.011 254.41L631.641 253.18L630.292 251.925L628.962 250.646L627.654 249.345L626.366 248.024L625.099 246.686L623.854 245.331L622.63 243.962L621.428 242.581L620.248 241.19L619.089 239.791L617.952 238.386L616.836 236.978L615.74 235.568L614.665 234.159L613.61 232.753L612.575 231.351L611.558 229.957L610.559 228.571L609.577 227.196L608.612 225.833L607.661 224.485L606.726 223.152L605.803 221.838L604.892 220.542L603.993 219.267L603.103 218.013L602.221 216.782L601.347 215.574L600.479 214.392L599.615 213.234L598.754 212.103L597.895 210.998L597.036 209.92L596.176 208.87L595.314 207.846L594.448 206.85L593.577 205.881L592.699 204.939L591.814 204.023L590.919 203.134L590.015 202.27L589.099 201.43L588.171 200.614L587.229 199.82L586.274 199.047L585.304 198.293L584.319 197.558L583.318 196.838L582.301 196.133L581.267 195.441L580.218 194.758L579.152 194.085L578.071 193.417L576.974 192.753L575.863 192.091L574.737 191.429L573.598 190.764L572.447 190.093L571.285 189.416L570.114 188.729L568.934 188.031L567.747 187.319L566.555 186.591L565.359 185.846L564.163 185.082L562.967 184.296L561.773 183.488L560.585 182.656L559.403 181.798L558.231 180.914L557.07 180.002L555.924 179.061L554.793 178.091L553.681 177.092L552.59 176.062L551.523 175.001L550.481 173.91L549.467 172.789L548.483 171.637L547.53 170.456L546.612 169.246L545.73 168.007L544.886 166.74L544.081 165.448L543.317 164.129L542.596 162.787L541.918 161.422L541.285 160.036L540.697 158.63L540.156 157.206L539.661 155.766L539.214 154.312L538.814 152.845L538.462 151.367L538.156 149.881L537.897 148.388L537.683 146.89L537.514 145.389L537.387 143.887L537.302 142.386L537.256 140.887L537.248 139.393L537.274 137.905L537.333 136.424L537.422 134.952L537.538 133.489L537.678 132.037L537.84 130.597L538.019 129.169L538.213 127.754L538.418 126.352L538.632 124.963L538.851 123.588L539.072 122.226L539.291 120.876L539.506 119.538L539.714 118.212L539.912 116.896L540.096 115.59L540.265 114.293L540.417 113.002L540.549 111.718L540.659 110.437L540.745 109.16L540.807 107.884L540.843 106.608L540.852 105.33L540.835 104.049L540.789 102.763L540.717 101.471L540.617 100.171L540.49 98.8621L540.336 97.5424L540.156 96.2108L539.952 94.8661L539.723 93.5073L539.471 92.1332L539.198 90.7431L538.906 89.3361L538.595 87.9117L538.268 86.4693L537.927 85.0085L537.574 83.5292L537.212 82.0314L536.842 80.515L536.468 78.9805L536.092 77.4281L535.715 75.8586L535.342 74.2726L534.975 72.6711L534.617 71.0552L534.27 69.4259L533.937 67.7848L533.621 66.1333L533.324 64.4731L533.05 62.8058L532.801 61.1335L532.578 59.458L532.386 57.7815L532.225 56.106L532.099 54.434L532.009 52.7676L531.958 51.1092L531.947 49.4612L531.977 47.826L532.051 46.2061L532.169 44.6037L532.333 43.0214L532.544 41.4615L532.802 39.9263L533.109 38.418L533.464 36.9388L533.868 35.4907L534.321 34.0759L534.822 32.696L535.372 31.3529L535.97 30.0482L536.615 28.7833L537.307 27.5596L538.043 26.3781L538.825 25.2398L539.649 24.1456L540.515 23.0963L541.421 22.0926L542.366 21.135L543.349 20.2242L544.368 19.3606L545.422 18.5445L546.509 17.7761L547.627 17.0555L548.775 16.3827L549.951 15.7576L551.154 15.1799L552.381 14.6493L553.631 14.1652L554.903 13.727L556.193 13.334L557.502 12.9854L558.826 12.6801L560.163 12.4172L561.513 12.1953L562.874 12.0133L564.243 11.8697L565.619 11.7633L567 11.6923L568.385 11.6554L569.772 11.6509L571.16 11.6771L572.547 11.7325L573.933 11.8153L575.315 11.924L576.692 12.0568L578.065 12.2122L579.431 12.3887L580.79 12.5847L582.14 12.7989L583.483 13.0298L584.816 13.2759L586.139 13.5358L587.451 13.8079L588.752 14.0907L590.042 14.3829L591.32 14.6829L592.586 14.9892L593.84 15.3006L595.08 15.6155L596.308 15.9326L597.523 16.2507L598.725 16.5684L599.914 16.8846L601.091 17.1981L602.254 17.5077L603.405 17.8126L604.544 18.1116L605.671 18.4039L606.786 18.6887L607.89 18.9652L608.983 19.2327L610.066 19.4907L611.138 19.7386L612.202 19.9759L613.256 20.2024L614.302 20.4177L615.341 20.6217L616.373 20.8141L617.398 20.9949L618.417 21.1642L619.431 21.322L620.441 21.4684L621.447 21.6038L622.449 21.7283L623.449 21.8423L624.447 21.9461L625.444 22.0403L626.44 22.1253L627.436 22.2015L628.432 22.2697L629.429 22.3303L630.428 22.3839L631.429 22.4313L632.432 22.4731L633.439 22.5099L634.449 22.5425L635.462 22.5715L636.481 22.5977L637.504 22.6217L638.532 22.6443L639.565 22.6661L640.604 22.6879L641.649 22.7102L642.701 22.7337L643.759 22.7588L644.824 22.7862L645.896 22.8162L646.975 22.8493L648.062 22.8859L649.157 22.9262L650.259 22.9707L651.371 23.0196L652.49 23.0732L653.619 23.1318L654.756 23.1956L655.903 23.265L657.059 23.3401L658.225 23.4213L659.401 23.5087L660.587 23.6027L661.784 23.7035L662.991 23.8115L664.21 23.927L665.439 24.0503L666.679 24.1819L667.932 24.322L669.195 24.4713L670.471 24.6301L671.758 24.7989L673.058 24.9783L674.369 25.169L675.693 25.3715L677.028 25.5865L678.376 25.8148L679.736 26.0571L681.107 26.3142L682.491 26.5869L683.885 26.8761L685.291 27.1826L686.708 27.507L688.136 27.8501L689.574 28.2127L691.022 28.5952L692.48 28.9985L693.947 29.4231L695.424 29.8696L696.91 30.3385L698.404 30.8304L699.907 31.3458L701.417 31.8851L702.935 32.4488L704.46 33.0374L705.991 33.6512L707.529 34.2906L709.073 34.956L710.622 35.6478L712.176 36.3662L713.735 37.1116L715.299 37.8843L716.865 38.6846L718.436 39.5128L720.009 40.369L721.584 41.2537L723.161 42.1669L724.739 43.1089L726.318 44.0799L727.898 45.0802L729.476 46.11L731.054 47.1693L732.63 48.2584L734.204 49.3774L735.774 50.5265L737.341 51.7058L738.904 52.9154L740.461 54.1554L742.012 55.4258L743.556 56.7268L745.093 58.0584L746.621 59.4205L748.139 60.8132L749.647 62.2365L751.144 63.6902L752.628 65.1743L754.099 66.6887Z" fill="#FFDE3F"/>
<path fill-rule="evenodd" clip-rule="evenodd" d="M189.109 231.23L189.376 232.166L189.636 233.111L189.89 234.066L190.136 235.03L190.372 236.002L190.598 236.983L190.813 237.972L191.015 238.969L191.203 239.973L191.376 240.983L191.533 242L191.673 243.021L191.793 244.047L191.894 245.077L191.974 246.11L192.032 247.144L192.066 248.18L192.076 249.216L192.061 250.252L192.02 251.285L191.951 252.315L191.855 253.342L191.73 254.364L191.575 255.379L191.39 256.387L191.175 257.387L190.929 258.378L190.651 259.358L190.341 260.326L189.999 261.282L189.625 262.224L189.219 263.15L188.78 264.061L188.308 264.954L187.804 265.83L187.268 266.686L186.7 267.521L186.099 268.335L185.467 269.127L184.804 269.896L184.11 270.64L183.385 271.359L182.63 272.051L181.846 272.717L181.033 273.354L180.192 273.963L179.323 274.542L178.428 275.091L177.508 275.609L176.563 276.096L175.594 276.552L174.604 276.976L173.593 277.368L172.562 277.729L171.512 278.057L170.445 278.354L169.363 278.618L168.267 278.852L167.157 279.054L166.036 279.225L164.906 279.367L163.766 279.479L162.62 279.562L161.467 279.617L160.31 279.644L159.151 279.646L157.989 279.622L156.828 279.573L155.667 279.502L154.508 279.408L153.353 279.293L152.202 279.159L151.056 279.006L149.917 278.836L148.786 278.65L147.662 278.449L146.548 278.236L145.444 278.011L144.35 277.775L143.268 277.53L142.197 277.278L141.139 277.02L140.092 276.756L139.059 276.49L138.039 276.22L137.032 275.95L136.039 275.681L135.058 275.412L134.091 275.147L133.138 274.885L132.197 274.628L131.269 274.376L130.354 274.132L129.451 273.895L128.56 273.667L127.68 273.448L126.811 273.238L125.952 273.039L125.103 272.851L124.264 272.673L123.432 272.506L122.608 272.35L121.792 272.204L120.981 272.069L120.177 271.944L119.377 271.828L118.582 271.722L117.791 271.624L117.004 271.534L116.218 271.452L115.436 271.376L114.655 271.306L113.875 271.24L113.096 271.18L112.317 271.122L111.539 271.067L110.761 271.014L109.982 270.961L109.203 270.909L108.424 270.856L107.643 270.802L106.862 270.746L106.079 270.686L105.296 270.624L104.512 270.558L103.726 270.487L102.94 270.412L102.153 270.332L101.365 270.246L100.575 270.155L99.7853 270.059L98.9943 269.957L98.2023 269.849L97.4093 269.736L96.6152 269.618L95.82 269.494L95.0235 269.366L94.2257 269.233L93.4265 269.095L92.6256 268.953L91.823 268.806L91.0184 268.656L90.2116 268.502L89.4025 268.345L88.5908 268.184L87.7763 268.021L86.9585 267.855L86.1374 267.686L85.3126 267.515L84.4837 267.341L83.6505 267.166L82.8126 266.989L81.9696 266.81L81.1213 266.63L80.2673 266.448L79.4073 266.265L78.5408 266.08L77.6676 265.893L76.7874 265.705L75.8998 265.516L75.0045 265.325L74.1012 265.131L73.1897 264.936L72.2698 264.738L71.341 264.538L70.4034 264.335L69.4567 264.129L68.5008 263.92L67.5355 263.706L66.5607 263.488L65.5765 263.266L64.5828 263.038L63.5796 262.805L62.567 262.566L61.5451 262.32L60.5141 262.067L59.474 261.807L58.4252 261.538L57.368 261.26L56.3025 260.973L55.2291 260.676L54.1482 260.369L53.0603 260.051L51.9657 259.721L50.865 259.379L49.7586 259.024L48.6473 258.656L47.5316 258.274L46.4123 257.878L45.2902 257.467L44.1661 257.04L43.0409 256.598L41.9155 256.138L40.7908 255.662L39.668 255.168L38.548 254.657L37.4319 254.126L36.3208 253.578L35.2157 253.01L34.1178 252.422L33.0282 251.816L31.9481 251.189L30.8785 250.543L29.8205 249.876L28.7753 249.19L27.7439 248.484L26.7274 247.758L25.7268 247.011L24.7433 246.246L23.7777 245.46L22.831 244.656L21.9041 243.832L20.998 242.99L20.1135 242.129L19.2515 241.251L18.4127 240.355L17.5979 239.442L16.808 238.512L16.0434 237.566L15.3051 236.605L14.5936 235.629L13.9096 234.638L13.2537 233.633L12.6264 232.615L12.0282 231.585L11.4595 230.543L10.9205 229.489L10.4113 228.425L9.93194 227.352L9.48244 226.269L9.06261 225.178L8.67223 224.08L8.31094 222.974L7.97832 221.863L7.67386 220.747L7.39695 219.625L7.14691 218.5L6.92298 217.371L6.72435 216.239L6.55011 215.106L6.39931 213.97L6.27097 212.833L6.16402 211.695L6.07737 210.557L6.00991 209.418L5.96048 208.28L5.92791 207.142L5.91103 206.005L5.90865 204.868L5.91958 203.732L5.94266 202.597L5.97673 201.462L6.02065 200.328L6.07333 199.195L6.1337 198.063L6.20073 196.93L6.27347 195.798L6.35099 194.665L6.43243 193.532L6.51702 192.399L6.60402 191.263L6.69281 190.127L6.7828 188.988L6.87353 187.848L6.96459 186.704L7.05567 185.557L7.14656 184.407L7.23711 183.253L7.3273 182.095L7.41717 180.932L7.50687 179.765L7.59662 178.592L7.68676 177.413L7.77768 176.229L7.86988 175.039L7.96394 173.843L8.06049 172.641L8.16027 171.432L8.26406 170.217L8.37272 168.996L8.48718 167.768L8.60841 166.535L8.73743 165.296L8.87532 164.052L9.02319 162.802L9.18217 161.548L9.35346 160.289L9.53821 159.027L9.73765 157.761L9.95296 156.493L10.1853 155.224L10.436 153.953L10.7061 152.682L10.9967 151.412L11.3091 150.144L11.6442 148.878L12.0031 147.616L12.3867 146.358L12.796 145.106L13.2318 143.861L13.6949 142.624L14.186 141.395L14.7057 140.177L15.2545 138.97L15.833 137.775L16.4414 136.593L17.0801 135.426L17.7491 134.274L18.4487 133.139L19.1788 132.02L19.9393 130.92L20.73 129.839L21.5507 128.778L22.4008 127.738L23.2801 126.719L24.1881 125.721L25.1241 124.747L26.0875 123.795L27.0776 122.866L28.0936 121.962L29.1349 121.082L30.2004 120.225L31.2893 119.394L32.4006 118.587L33.5334 117.805L34.6866 117.047L35.8593 116.313L37.0504 115.604L38.2588 114.919L39.4834 114.257L40.7232 113.618L41.9772 113.002L43.2441 112.409L44.5231 111.836L45.8131 111.285L47.1131 110.754L48.422 110.242L49.7391 109.749L51.0633 109.273L52.3939 108.815L53.7299 108.373L55.0707 107.946L56.4155 107.533L57.7637 107.133L59.1146 106.746L60.4677 106.371L61.8226 106.006L63.1788 105.651L64.5359 105.305L65.8936 104.967L67.2518 104.636L68.6101 104.312L69.9685 103.993L71.3268 103.68L72.6852 103.371L74.0435 103.067L75.402 102.765L76.7606 102.467L78.1197 102.172L79.4793 101.879L80.8398 101.589L82.2013 101.301L83.5642 101.015L84.9289 100.732L86.2955 100.451L87.6646 100.173L89.0363 99.8981L90.4111 99.6266L91.7892 99.3589L93.171 99.0956L94.5567 98.8372L95.9468 98.5844L97.3413 98.3379L98.7406 98.0984L100.145 97.8667L101.554 97.6436L102.969 97.4302L104.389 97.2272L105.814 97.0359L107.245 96.857L108.681 96.6918L110.122 96.5413L111.568 96.4066L113.02 96.2888L114.476 96.1891L115.936 96.1085L117.4 96.0483L118.868 96.0094L120.338 95.9932L121.811 96.0005L123.287 96.0324L124.763 96.09L126.24 96.1743L127.716 96.286L129.192 96.4262L130.666 96.5955L132.137 96.7947L133.605 97.0245L135.068 97.2855L136.526 97.578L137.978 97.9025L139.422 98.2594L140.858 98.6487L142.285 99.0707L143.702 99.5256L145.107 100.013L146.5 100.534L147.881 101.087L149.247 101.673L150.597 102.292L151.932 102.943L153.25 103.626L154.55 104.341L155.83 105.087L157.091 105.865L158.331 106.673L159.55 107.511L160.746 108.379L161.919 109.276L163.067 110.201L164.191 111.154L165.289 112.133L166.361 113.139L167.406 114.17L168.424 115.225L169.414 116.303L170.375 117.404L171.308 118.527L172.211 119.67L173.085 120.832L173.929 122.013L174.743 123.21L175.526 124.424L176.28 125.653L177.002 126.896L177.695 128.151L178.357 129.418L178.99 130.695L179.592 131.981L180.164 133.275L180.707 134.576L181.221 135.882L181.707 137.193L182.164 138.508L182.593 139.824L182.996 141.142L183.371 142.46L183.721 143.777L184.046 145.092L184.346 146.404L184.622 147.712L184.876 149.015L185.107 150.313L185.317 151.604L185.506 152.888L185.676 154.164L185.827 155.431L185.96 156.689L186.077 157.938L186.176 159.176L186.261 160.403L186.33 161.62L186.385 162.825L186.427 164.019L186.456 165.201L186.472 166.371L186.477 167.529L186.471 168.675L186.454 169.809L186.428 170.93L186.391 172.039L186.346 173.136L186.292 174.221L186.23 175.294L186.16 176.355L186.082 177.403L185.998 178.44L185.907 179.465L185.81 180.478L185.707 181.48L185.599 182.47L185.486 183.448L185.368 184.416L185.247 185.372L185.122 186.317L184.994 187.251L184.864 188.175L184.733 189.088L184.6 189.99L184.467 190.881L184.335 191.763L184.205 192.634L184.077 193.496L183.952 194.347L183.831 195.189L183.716 196.022L183.607 196.846L183.504 197.662L183.409 198.469L183.323 199.268L183.245 200.06L183.178 200.845L183.12 201.624L183.074 202.397L183.04 203.165L183.017 203.928L183.007 204.686L183.01 205.442L183.026 206.194L183.055 206.944L183.098 207.692L183.155 208.439L183.226 209.186L183.311 209.933L183.41 210.68L183.522 211.43L183.649 212.181L183.788 212.935L183.941 213.693L184.107 214.455L184.285 215.221L184.475 215.993L184.676 216.77L184.888 217.553L185.111 218.343L185.343 219.14L185.583 219.945L185.832 220.758L186.088 221.579L186.35 222.409L186.618 223.248L186.89 224.096L187.166 224.953L187.444 225.821L187.724 226.697L188.004 227.584L188.284 228.481L188.562 229.387L188.837 230.304L189.109 231.23Z" fill="#7D7455"/>
<path fill-rule="evenodd" clip-rule="evenodd" d="M405.613 185.035L406.153 185.799L406.701 186.578L407.253 187.375L407.81 188.188L408.368 189.019L408.928 189.868L409.487 190.734L410.043 191.619L410.596 192.522L411.144 193.443L411.686 194.383L412.22 195.34L412.746 196.316L413.264 197.309L413.772 198.321L414.271 199.35L414.76 200.398L415.239 201.463L415.708 202.546L416.167 203.648L416.616 204.767L417.055 205.905L417.484 207.061L417.903 208.236L418.312 209.429L418.71 210.641L419.097 211.871L419.472 213.12L419.836 214.387L420.186 215.673L420.522 216.976L420.843 218.297L421.147 219.634L421.433 220.987L421.699 222.354L421.945 223.736L422.168 225.131L422.368 226.539L422.543 227.956L422.692 229.384L422.813 230.82L422.906 232.263L422.969 233.711L423 235.163L422.999 236.618L422.965 238.073L422.896 239.527L422.791 240.977L422.65 242.423L422.472 243.862L422.255 245.291L422 246.71L421.705 248.116L421.37 249.507L420.995 250.88L420.579 252.234L420.122 253.566L419.624 254.875L419.084 256.158L418.503 257.412L417.881 258.637L417.219 259.83L416.516 260.988L415.773 262.111L414.992 263.195L414.171 264.24L413.314 265.243L412.419 266.203L411.489 267.119L410.524 267.989L409.527 268.811L408.497 269.585L407.437 270.309L406.348 270.982L405.232 271.605L404.09 272.175L402.924 272.693L401.735 273.158L400.527 273.571L399.3 273.93L398.056 274.237L396.798 274.491L395.526 274.694L394.244 274.845L392.953 274.946L391.655 274.997L390.352 275L389.046 274.956L387.738 274.867L386.431 274.733L385.126 274.557L383.825 274.341L382.529 274.086L381.239 273.794L379.958 273.467L378.686 273.106L377.425 272.714L376.175 272.293L374.938 271.844L373.715 271.37L372.506 270.873L371.313 270.354L370.135 269.817L368.974 269.263L367.829 268.694L366.702 268.112L365.593 267.52L364.501 266.921L363.427 266.315L362.371 265.706L361.333 265.096L360.312 264.486L359.309 263.879L358.322 263.277L357.352 262.682L356.398 262.096L355.459 261.521L354.535 260.957L353.625 260.408L352.728 259.875L351.842 259.358L350.968 258.859L350.104 258.38L349.249 257.922L348.402 257.485L347.562 257.07L346.727 256.679L345.897 256.311L345.071 255.968L344.246 255.649L343.422 255.356L342.598 255.087L341.772 254.843L340.944 254.625L340.111 254.43L339.273 254.261L338.43 254.115L337.578 253.993L336.719 253.893L335.85 253.815L334.971 253.758L334.08 253.721L333.177 253.703L332.261 253.702L331.332 253.719L330.388 253.75L329.43 253.795L328.456 253.853L327.465 253.921L326.459 253.999L325.436 254.085L324.396 254.177L323.339 254.273L322.265 254.372L321.174 254.471L320.066 254.57L318.942 254.667L317.801 254.759L316.643 254.845L315.47 254.923L314.281 254.992L313.078 255.049L311.861 255.094L310.63 255.124L309.387 255.137L308.132 255.133L306.866 255.109L305.591 255.064L304.307 254.996L303.015 254.905L301.717 254.788L300.412 254.646L299.103 254.477L297.791 254.279L296.475 254.054L295.158 253.8L293.839 253.516L292.521 253.202L291.203 252.858L289.886 252.483L288.573 252.077L287.263 251.64L285.957 251.171L284.657 250.67L283.364 250.137L282.078 249.571L280.803 248.972L279.538 248.339L278.285 247.673L277.046 246.973L275.823 246.237L274.618 245.467L273.432 244.662L272.268 243.821L271.127 242.945L270.011 242.033L268.922 241.086L267.863 240.104L266.833 239.087L265.837 238.036L264.875 236.952L263.949 235.834L263.06 234.684L262.211 233.502L261.403 232.29L260.638 231.048L259.916 229.777L259.24 228.48L258.611 227.156L258.029 225.808L257.496 224.437L257.012 223.044L256.579 221.631L256.198 220.2L255.868 218.753L255.591 217.29L255.367 215.815L255.195 214.328L255.077 212.831L255.012 211.328L255 209.818L255.041 208.305L255.133 206.79L255.278 205.276L255.473 203.763L255.719 202.253L256.015 200.75L256.358 199.253L256.749 197.766L257.187 196.289L257.668 194.825L258.194 193.374L258.761 191.939L259.368 190.52L260.015 189.119L260.698 187.737L261.417 186.376L262.169 185.035L262.953 183.718L263.767 182.423L264.608 181.153L265.476 179.907L266.369 178.686L267.283 177.491L268.218 176.322L269.172 175.18L270.142 174.065L271.127 172.976L272.125 171.915L273.133 170.88L274.151 169.872L275.174 168.89L276.201 167.934L277.23 167.003L278.257 166.097L279.281 165.214L280.298 164.353L281.306 163.514L282.303 162.694L283.285 161.893L284.252 161.108L285.199 160.338L286.125 159.581L287.028 158.835L287.905 158.098L288.755 157.368L289.575 156.641L290.363 155.917L291.118 155.191L291.838 154.462L292.522 153.726L293.168 152.982L293.776 152.226L294.345 151.456L294.875 150.669L295.367 149.863L295.82 149.036L296.237 148.186L296.617 147.311L296.963 146.41L297.275 145.481L297.558 144.523L297.812 143.536L298.04 142.519L298.245 141.471L298.43 140.393L298.598 139.286L298.752 138.149L298.896 136.984L299.033 135.793L299.166 134.576L299.3 133.336L299.438 132.075L299.582 130.796L299.738 129.501L299.908 128.193L300.095 126.875L300.304 125.551L300.536 124.225L300.794 122.9L301.082 121.58L301.402 120.27L301.756 118.972L302.145 117.692L302.573 116.434L303.04 115.201L303.548 113.998L304.097 112.829L304.688 111.697L305.322 110.608L305.998 109.563L306.717 108.568L307.477 107.624L308.279 106.735L309.121 105.904L310.002 105.133L310.921 104.425L311.876 103.781L312.864 103.202L313.884 102.69L314.934 102.246L316.011 101.87L317.112 101.562L318.236 101.322L319.379 101.149L320.539 101.042L321.712 101L322.897 101.02L324.09 101.101L325.289 101.24L326.49 101.434L327.691 101.679L328.89 101.972L330.084 102.309L331.271 102.685L332.449 103.097L333.616 103.539L334.769 104.006L335.909 104.495L337.032 104.999L338.139 105.515L339.229 106.037L340.3 106.56L341.354 107.08L342.389 107.594L343.406 108.095L344.405 108.582L345.387 109.05L346.352 109.497L347.303 109.919L348.238 110.315L349.161 110.682L350.072 111.019L350.972 111.324L351.863 111.595L352.747 111.832L353.625 112.034L354.498 112.201L355.369 112.333L356.238 112.43L357.107 112.493L357.978 112.523L358.852 112.521L359.731 112.489L360.615 112.428L361.506 112.342L362.405 112.232L363.312 112.101L364.229 111.952L365.155 111.789L366.091 111.613L367.038 111.43L367.995 111.241L368.963 111.052L369.94 110.866L370.926 110.685L371.921 110.516L372.924 110.36L373.933 110.221L374.947 110.104L375.965 110.012L376.986 109.948L378.007 109.915L379.027 109.917L380.044 109.957L381.055 110.036L382.059 110.158L383.054 110.325L384.038 110.539L385.007 110.801L385.96 111.112L386.896 111.474L387.81 111.887L388.703 112.352L389.571 112.869L390.413 113.437L391.226 114.057L392.01 114.727L392.762 115.446L393.482 116.212L394.168 117.025L394.82 117.881L395.436 118.779L396.016 119.717L396.56 120.692L397.068 121.7L397.539 122.74L397.975 123.808L398.375 124.901L398.741 126.017L399.071 127.153L399.368 128.306L399.632 129.474L399.863 130.654L400.063 131.843L400.233 133.041L400.373 134.243L400.485 135.448L400.571 136.654L400.63 137.859L400.665 139.06L400.678 140.257L400.669 141.446L400.64 142.627L400.593 143.799L400.528 144.959L400.448 146.107L400.354 147.241L400.247 148.361L400.129 149.465L400 150.553L399.864 151.625L399.72 152.679L399.572 153.714L399.42 154.731L399.266 155.729L399.111 156.707L398.959 157.666L398.809 158.604L398.665 159.522L398.527 160.42L398.398 161.297L398.278 162.155L398.17 162.993L398.075 163.812L397.995 164.612L397.931 165.394L397.884 166.159L397.855 166.906L397.847 167.638L397.859 168.355L397.894 169.057L397.95 169.747L398.031 170.425L398.135 171.093L398.263 171.751L398.417 172.402L398.595 173.045L398.799 173.684L399.028 174.319L399.282 174.951L399.56 175.582L399.863 176.213L400.189 176.847L400.538 177.483L400.91 178.124L401.303 178.77L401.716 179.424L402.149 180.085L402.599 180.756L403.067 181.438L403.551 182.131L404.048 182.836L404.559 183.555L405.081 184.288L405.613 185.035Z" fill="#284A34"/>
<path fill-rule="evenodd" clip-rule="evenodd" d="M236.953 381.898L237.239 382.463L237.531 383.031L237.83 383.603L238.135 384.179L238.445 384.758L238.761 385.342L239.08 385.931L239.404 386.524L239.73 387.121L240.059 387.724L240.389 388.332L240.721 388.945L241.054 389.563L241.386 390.187L241.719 390.816L242.05 391.452L242.38 392.093L242.708 392.74L243.034 393.392L243.357 394.051L243.677 394.717L243.992 395.388L244.304 396.066L244.61 396.75L244.911 397.44L245.206 398.137L245.495 398.84L245.777 399.55L246.051 400.266L246.318 400.988L246.575 401.717L246.824 402.453L247.063 403.195L247.291 403.943L247.508 404.697L247.714 405.457L247.907 406.224L248.087 406.996L248.253 407.774L248.405 408.558L248.542 409.347L248.662 410.141L248.765 410.941L248.851 411.745L248.918 412.554L248.966 413.367L248.994 414.183L249 415.004L248.985 415.827L248.948 416.654L248.888 417.483L248.804 418.314L248.696 419.148L248.563 419.983L248.405 420.819L248.221 421.656L248.01 422.493L247.773 423.33L247.509 424.167L247.218 425.004L246.899 425.839L246.552 426.673L246.177 427.505L245.774 428.335L245.343 429.162L244.882 429.986L244.394 430.808L243.876 431.625L243.33 432.439L242.756 433.248L242.153 434.053L241.522 434.853L240.862 435.647L240.175 436.436L239.459 437.22L238.716 437.997L237.945 438.767L237.147 439.532L236.322 440.289L235.47 441.039L234.592 441.782L233.688 442.517L232.759 443.244L231.803 443.963L230.823 444.674L229.818 445.376L228.789 446.07L227.736 446.755L226.66 447.43L225.56 448.097L224.437 448.754L223.292 449.401L222.125 450.038L220.937 450.666L219.727 451.283L218.496 451.89L217.245 452.486L215.974 453.072L214.683 453.646L213.373 454.21L212.044 454.762L210.696 455.303L209.331 455.832L207.947 456.349L206.546 456.854L205.129 457.347L203.695 457.827L202.244 458.295L200.778 458.75L199.297 459.191L197.801 459.62L196.29 460.035L194.766 460.437L193.228 460.825L191.678 461.199L190.115 461.56L188.54 461.907L186.954 462.24L185.358 462.559L183.751 462.865L182.134 463.156L180.508 463.433L178.874 463.696L177.231 463.945L175.581 464.179L173.923 464.4L172.259 464.606L170.589 464.798L168.913 464.976L167.232 465.139L165.546 465.288L163.856 465.423L162.163 465.544L160.467 465.651L158.768 465.743L157.066 465.821L155.363 465.885L153.659 465.935L151.955 465.971L150.25 465.992L148.545 466L146.842 465.994L145.139 465.974L143.438 465.94L141.739 465.892L140.043 465.831L138.35 465.756L136.661 465.668L134.975 465.566L133.294 465.452L131.617 465.324L129.946 465.183L128.28 465.03L126.62 464.864L124.966 464.686L123.32 464.495L121.68 464.292L120.048 464.078L118.423 463.852L116.806 463.614L115.198 463.366L113.598 463.107L112.007 462.837L110.425 462.557L108.852 462.267L107.288 461.967L105.734 461.658L104.19 461.34L102.656 461.013L101.131 460.678L99.6158 460.335L98.1108 459.985L96.6156 459.627L95.1302 459.262L93.6546 458.891L92.1887 458.513L90.7322 458.13L89.2852 457.741L87.8474 457.348L86.4186 456.949L84.9986 456.546L83.5872 456.139L82.184 455.728L80.7889 455.314L79.4015 454.897L78.0214 454.476L76.6485 454.053L75.2823 453.628L73.9224 453.201L72.5687 452.772L71.2206 452.341L69.8779 451.908L68.5403 451.474L67.2073 451.039L65.8786 450.602L64.5541 450.164L63.2333 449.725L61.916 449.285L60.602 448.844L59.291 448.401L57.9829 447.957L56.6776 447.512L55.3748 447.065L54.0747 446.617L52.777 446.166L51.482 445.713L50.1896 445.258L48.9 444.801L47.6136 444.34L46.3307 443.876L45.0519 443.408L43.7777 442.936L42.5089 442.459L41.2463 441.976L39.9908 441.488L38.7436 440.992L37.5057 440.49L36.2783 439.98L35.0629 439.462L33.8607 438.935L32.6734 438.398L31.5023 437.852L30.3493 437.294L29.2158 436.726L28.1038 436.147L27.0148 435.555L25.9507 434.951L24.9134 434.334L23.9046 433.705L22.9262 433.062L21.98 432.406L21.0676 431.736L20.191 431.053L19.3518 430.356L18.5516 429.646L17.792 428.922L17.0745 428.185L16.4005 427.435L15.7712 426.672L15.1878 425.897L14.6512 425.11L14.1625 424.312L13.7222 423.503L13.3311 422.684L12.9896 421.855L12.6982 421.017L12.4572 420.171L12.2669 419.317L12.1273 418.457L12.0385 417.591L12.0004 416.719L12.0129 415.843L12.0756 414.963L12.1881 414.08L12.3499 413.196L12.5605 412.31L12.819 411.423L13.1246 410.537L13.4765 409.652L13.8735 408.769L14.3147 407.888L14.7986 407.011L15.3242 406.139L15.8898 405.271L16.4941 404.409L17.1355 403.554L17.8123 402.705L18.5229 401.864L19.2655 401.032L20.0382 400.208L20.8392 399.394L21.6666 398.59L22.5182 397.796L23.3923 397.013L24.2866 396.242L25.1992 395.482L26.1279 394.734L27.0706 393.998L28.0254 393.274L28.9899 392.564L29.9622 391.866L30.9402 391.18L31.9218 390.508L32.905 389.849L33.8878 389.202L34.8682 388.569L35.8444 387.948L36.8143 387.34L37.7763 386.745L38.7287 386.161L39.6696 385.59L40.5975 385.03L41.5109 384.482L42.4083 383.945L43.2883 383.418L44.1497 382.902L44.9912 382.395L45.8119 381.898L46.6106 381.41L47.3864 380.931L48.1387 380.459L48.8665 379.995L49.5695 379.538L50.247 379.087L50.8986 378.642L51.5242 378.202L52.1233 377.767L52.6959 377.337L53.2418 376.91L53.7608 376.487L54.2528 376.066L54.7178 375.647L55.1557 375.23L55.5666 374.814L55.9506 374.398L56.3077 373.982L56.6382 373.566L56.9424 373.148L57.2204 372.729L57.4726 372.308L57.6995 371.885L57.9015 371.458L58.079 371.028L58.2327 370.593L58.3632 370.154L58.471 369.711L58.557 369.262L58.6217 368.807L58.6661 368.347L58.6909 367.88L58.697 367.406L58.6852 366.925L58.6564 366.437L58.6116 365.941L58.5517 365.437L58.4775 364.925L58.3901 364.404L58.2903 363.875L58.1791 363.337L58.0574 362.79L57.926 362.233L57.7858 361.667L57.6378 361.092L57.4828 360.506L57.3219 359.911L57.1561 359.305L56.9866 358.689L56.8146 358.064L56.6413 357.428L56.468 356.783L56.2961 356.127L56.1267 355.462L55.9615 354.787L55.8017 354.103L55.6488 353.41L55.5044 352.708L55.3699 351.998L55.2467 351.28L55.1364 350.554L55.0406 349.822L54.9606 349.083L54.8979 348.338L54.8541 347.588L54.8306 346.833L54.8287 346.074L54.8499 345.312L54.8956 344.547L54.9669 343.78L55.0652 343.013L55.1917 342.246L55.3476 341.479L55.5338 340.714L55.7514 339.952L56.0014 339.193L56.2846 338.439L56.6018 337.69L56.9537 336.947L57.341 336.212L57.7641 335.484L58.2236 334.767L58.7198 334.059L59.253 333.362L59.8232 332.678L60.4307 332.007L61.0754 331.349L61.7571 330.706L62.4757 330.079L63.2308 329.469L64.0221 328.875L64.8491 328.3L65.7111 327.743L66.6076 327.206L67.5378 326.689L68.5008 326.193L69.4957 325.717L70.5215 325.264L71.5773 324.832L72.6618 324.423L73.7738 324.037L74.9122 323.674L76.0756 323.334L77.2626 323.017L78.472 322.724L79.7022 322.454L80.9519 322.208L82.2194 321.985L83.5035 321.785L84.8027 321.609L86.1156 321.455L87.4407 321.324L88.7768 321.215L90.1225 321.129L91.4764 321.064L92.8373 321.022L94.2039 321L95.5749 321L96.949 321.02L98.325 321.061L99.7018 321.121L101.078 321.201L102.453 321.3L103.825 321.417L105.193 321.551L106.557 321.703L107.915 321.871L109.266 322.055L110.61 322.255L111.945 322.469L113.271 322.696L114.587 322.937L115.892 323.19L117.186 323.455L118.469 323.73L119.738 324.016L120.995 324.311L122.239 324.615L123.469 324.927L124.684 325.247L125.886 325.573L127.074 325.905L128.246 326.242L129.405 326.584L130.548 326.93L131.677 327.28L132.791 327.634L133.89 327.989L134.975 328.347L136.045 328.706L137.101 329.065L138.144 329.425L139.172 329.785L140.187 330.144L141.188 330.502L142.177 330.858L143.154 331.212L144.118 331.563L145.071 331.911L146.012 332.256L146.943 332.597L147.864 332.933L148.775 333.265L149.678 333.593L150.571 333.915L151.457 334.232L152.335 334.544L153.207 334.85L154.072 335.15L154.932 335.444L155.787 335.731L156.637 336.013L157.483 336.289L158.327 336.558L159.167 336.821L160.005 337.078L160.842 337.329L161.677 337.573L162.512 337.812L163.347 338.045L164.182 338.272L165.018 338.494L165.856 338.71L166.695 338.922L167.536 339.128L168.379 339.33L169.225 339.527L170.075 339.721L170.927 339.91L171.783 340.096L172.643 340.278L173.507 340.458L174.376 340.635L175.248 340.809L176.126 340.981L177.008 341.152L177.894 341.321L178.786 341.489L179.682 341.656L180.584 341.822L181.49 341.988L182.401 342.155L183.318 342.321L184.239 342.488L185.165 342.656L186.096 342.825L187.033 342.996L187.973 343.168L188.919 343.342L189.868 343.518L190.822 343.697L191.779 343.88L192.74 344.065L193.703 344.255L194.669 344.449L195.636 344.647L196.604 344.851L197.573 345.06L198.541 345.275L199.508 345.496L200.473 345.724L201.435 345.959L202.394 346.202L203.349 346.452L204.298 346.71L205.241 346.976L206.178 347.25L207.106 347.533L208.026 347.825L208.936 348.126L209.836 348.436L210.724 348.756L211.6 349.084L212.464 349.423L213.313 349.77L214.148 350.127L214.968 350.494L215.772 350.869L216.559 351.255L217.328 351.649L218.079 352.053L218.812 352.466L219.525 352.887L220.218 353.318L220.89 353.757L221.541 354.204L222.171 354.66L222.779 355.123L223.366 355.594L223.931 356.072L224.474 356.556L224.994 357.048L225.494 357.545L225.971 358.048L226.428 358.557L226.863 359.071L227.279 359.589L227.674 360.111L228.05 360.638L228.407 361.167L228.746 361.7L229.068 362.236L229.374 362.774L229.663 363.314L229.939 363.856L230.2 364.399L230.449 364.943L230.686 365.488L230.912 366.034L231.128 366.581L231.336 367.127L231.536 367.674L231.729 368.22L231.917 368.766L232.101 369.312L232.281 369.858L232.458 370.403L232.634 370.948L232.809 371.492L232.985 372.036L233.162 372.579L233.341 373.122L233.523 373.665L233.709 374.208L233.899 374.751L234.093 375.294L234.294 375.837L234.5 376.381L234.712 376.925L234.932 377.471L235.158 378.018L235.392 378.566L235.633 379.116L235.882 379.668L236.138 380.222L236.402 380.778L236.674 381.337L236.953 381.898Z" fill="#FFDE3F"/>
<path fill-rule="evenodd" clip-rule="evenodd" d="M68.6526 762.042L67.6807 760.551L66.6407 759.108L65.5313 757.708L64.3512 756.349L63.1003 755.026L61.7785 753.735L60.3866 752.473L58.9256 751.234L57.3973 750.014L55.8038 748.808L54.1477 747.612L52.4319 746.421L50.66 745.23L48.8357 744.034L46.9632 742.831L45.047 741.614L43.092 740.38L41.1036 739.126L39.0874 737.846L37.0495 736.538L34.9967 735.198L32.9361 733.823L30.8753 732.409L28.822 730.953L26.7845 729.454L24.7713 727.91L22.7911 726.317L20.8529 724.676L18.966 722.985L17.1397 721.242L15.3833 719.449L13.7065 717.605L12.1183 715.711L10.6283 713.769L9.24528 711.779L7.97803 709.744L6.83493 707.666L5.82385 705.549L4.95219 703.396L4.22675 701.21L3.65365 698.996L3.23827 696.759L2.98518 694.503L2.89813 692.233L2.98001 689.954L3.23275 687.673L3.65723 685.395L4.25347 683.125L5.02039 680.869L5.95584 678.633L7.05673 676.422L8.31888 674.242L9.73709 672.098L11.3052 669.994L13.0161 667.936L14.8617 665.926L16.8329 663.97L18.9201 662.07L21.1126 660.229L23.3992 658.449L25.7679 656.731L28.2063 655.076L30.7014 653.486L33.2398 651.958L35.808 650.492L38.3921 649.086L40.9781 647.738L43.5521 646.444L46.1003 645.2L48.609 644.002L51.0649 642.845L53.4552 641.723L55.7674 640.63L57.9897 639.558L60.1111 638.502L62.1213 637.452L64.0109 636.402L65.7716 635.343L67.3958 634.268L68.8775 633.167L70.2115 632.032L71.394 630.856L72.4223 629.63L73.2953 628.348L74.0129 627L74.5766 625.582L74.989 624.086L75.2541 622.507L75.3774 620.841L75.3652 619.083L75.2255 617.23L74.967 615.279L74.5997 613.231L74.1345 611.084L73.5829 608.839L72.9574 606.498L72.2709 604.065L71.5368 601.542L70.7685 598.935L69.9798 596.248L69.184 593.49L68.3942 590.666L67.623 587.783L66.8821 584.85L66.1821 581.874L65.5327 578.862L64.9426 575.821L64.4196 572.76L63.9708 569.686L63.6023 566.605L63.3195 563.525L63.1272 560.453L63.0294 557.395L63.0294 554.358L63.1304 551.35L63.3349 548.375L63.6446 545.441L64.0612 542.555L64.5858 539.721L65.2189 536.947L65.9608 534.238L66.8113 531.6L67.7698 529.039L68.8353 526.559L70.0063 524.166L71.2812 521.864L72.6577 519.658L74.1334 517.552L75.7054 515.549L77.3704 513.652L79.1252 511.865L80.9656 510.19L82.8879 508.628L84.8875 507.181L86.9601 505.85L89.1009 504.636L91.3051 503.538L93.5677 502.555L95.8835 501.687L98.2474 500.932L100.654 500.289L103.099 499.753L105.576 499.324L108.081 498.997L110.609 498.768L113.154 498.634L115.713 498.591L118.28 498.633L120.852 498.755L123.424 498.953L125.992 499.222L128.554 499.555L131.106 499.949L133.644 500.396L136.167 500.892L138.672 501.431L141.157 502.008L143.62 502.619L146.06 503.258L148.476 503.921L150.866 504.604L153.231 505.302L155.57 506.013L157.883 506.733L160.17 507.459L162.431 508.19L164.667 508.923L166.878 509.657L169.064 510.393L171.228 511.128L173.368 511.865L175.487 512.603L177.584 513.344L179.661 514.09L181.717 514.842L183.754 515.604L185.771 516.379L187.769 517.169L189.748 517.978L191.707 518.81L193.645 519.668L195.564 520.556L197.46 521.478L199.335 522.436L201.185 523.434L203.011 524.473L204.811 525.557L206.583 526.684L208.327 527.856L210.041 529.071L211.726 530.326L213.379 531.618L215.002 532.943L216.593 534.296L218.155 535.672L219.687 537.066L221.19 538.472L222.666 539.883L224.117 541.295L225.545 542.7L226.952 544.094L228.341 545.469L229.715 546.82L231.078 548.141L232.431 549.426L233.781 550.671L235.13 551.87L236.482 553.018L237.843 554.112L239.215 555.148L240.603 556.124L242.012 557.035L243.446 557.882L244.908 558.662L246.403 559.376L247.934 560.023L249.504 560.603L251.117 561.12L252.774 561.575L254.479 561.97L256.232 562.31L258.036 562.597L259.891 562.838L261.796 563.038L263.753 563.2L265.759 563.333L267.813 563.443L269.914 563.535L272.058 563.617L274.242 563.697L276.462 563.782L278.715 563.878L280.994 563.993L283.296 564.136L285.614 564.311L287.941 564.527L290.273 564.791L292.601 565.107L294.919 565.483L297.22 565.923L299.496 566.433L301.741 567.017L303.946 567.678L306.106 568.421L308.212 569.247L310.258 570.16L312.238 571.159L314.144 572.247L315.971 573.424L317.714 574.688L319.368 576.04L320.927 577.477L322.388 578.998L323.747 580.6L325.001 582.28L326.148 584.035L327.186 585.86L328.113 587.753L328.928 589.707L329.632 591.719L330.226 593.784L330.708 595.897L331.082 598.052L331.349 600.245L331.511 602.47L331.571 604.722L331.532 606.996L331.398 609.287L331.172 611.59L330.859 613.901L330.464 616.214L329.991 618.524L329.447 620.829L328.836 623.123L328.165 625.402L327.442 627.662L326.672 629.901L325.863 632.115L325.02 634.302L324.149 636.459L323.257 638.584L322.35 640.676L321.433 642.734L320.512 644.757L319.593 646.745L318.683 648.696L317.786 650.61L316.908 652.489L316.056 654.332L315.235 656.139L314.45 657.913L313.708 659.654L313.012 661.364L312.369 663.045L311.782 664.698L311.257 666.326L310.796 667.931L310.404 669.516L310.083 671.085L309.836 672.639L309.665 674.183L309.57 675.719L309.554 677.251L309.615 678.783L309.754 680.316L309.969 681.856L310.258 683.404L310.62 684.965L311.05 686.541L311.546 688.135L312.103 689.749L312.716 691.386L313.381 693.049L314.092 694.738L314.842 696.455L315.625 698.202L316.434 699.978L317.263 701.786L318.105 703.624L318.951 705.493L319.794 707.391L320.628 709.318L321.445 711.272L322.237 713.252L322.999 715.256L323.722 717.282L324.401 719.326L325.03 721.387L325.603 723.461L326.115 725.545L326.561 727.637L326.937 729.732L327.241 731.828L327.468 733.922L327.616 736.009L327.685 738.088L327.673 740.156L327.581 742.208L327.407 744.245L327.154 746.262L326.823 748.258L326.416 750.232L325.937 752.183L325.388 754.11L324.774 756.012L324.098 757.891L323.365 759.746L322.58 761.578L321.749 763.389L320.875 765.181L319.965 766.956L319.024 768.715L318.056 770.462L317.066 772.2L316.058 773.931L315.036 775.658L314.003 777.383L312.962 779.108L311.913 780.836L310.858 782.567L309.796 784.302L308.726 786.04L307.648 787.782L306.56 789.527L305.461 791.275L304.351 793.025L303.227 794.776L302.089 796.528L300.936 798.281L299.766 800.032L298.578 801.78L297.37 803.524L296.141 805.263L294.888 806.994L293.611 808.714L292.307 810.421L290.975 812.113L289.613 813.785L288.218 815.436L286.79 817.06L285.327 818.655L283.827 820.217L282.288 821.741L280.711 823.224L279.094 824.661L277.435 826.048L275.736 827.382L273.994 828.657L272.212 829.871L270.388 831.019L268.524 832.099L266.62 833.106L264.678 834.039L262.699 834.894L260.684 835.669L258.637 836.363L256.559 836.974L254.453 837.503L252.322 837.948L250.168 838.309L247.994 838.589L245.804 838.788L243.601 838.908L241.389 838.953L239.17 838.925L236.948 838.829L234.726 838.668L232.507 838.448L230.295 838.174L228.092 837.852L225.901 837.488L223.723 837.089L221.563 836.663L219.42 836.215L217.297 835.753L215.194 835.286L213.113 834.819L211.054 834.362L209.017 833.921L207.002 833.502L205.007 833.114L203.032 832.761L201.075 832.451L199.135 832.188L197.21 831.977L195.296 831.821L193.392 831.726L191.496 831.691L189.603 831.72L187.712 831.813L185.818 831.969L183.921 832.187L182.015 832.466L180.1 832.802L178.172 833.191L176.228 833.63L174.268 834.112L172.289 834.632L170.289 835.183L168.268 835.76L166.225 836.355L164.16 836.962L162.071 837.575L159.959 838.189L157.824 838.797L155.667 839.397L153.488 839.982L151.287 840.548L149.066 841.09L146.826 841.604L144.569 842.082L142.296 842.52L140.01 842.912L137.714 843.252L135.411 843.533L133.104 843.751L130.796 843.898L128.491 843.971L126.194 843.962L123.909 843.867L121.64 843.682L119.392 843.402L117.169 843.023L114.977 842.542L112.821 841.956L110.704 841.263L108.632 840.461L106.609 839.55L104.64 838.529L102.729 837.398L100.879 836.159L99.0946 834.814L97.3782 833.365L95.7327 831.815L94.1605 830.168L92.6631 828.428L91.242 826.601L89.8977 824.691L88.6304 822.706L87.4396 820.65L86.3244 818.532L85.283 816.357L84.3134 814.134L83.4126 811.87L82.5774 809.573L81.8038 807.25L81.0876 804.909L80.4238 802.558L79.8072 800.204L79.2321 797.854L78.6926 795.516L78.1823 793.195L77.6946 790.899L77.223 788.633L76.7606 786.402L76.3005 784.212L75.8359 782.066L75.3599 779.969L74.8661 777.923L74.3478 775.931L73.7989 773.995L73.2135 772.116L72.586 770.295L71.9113 768.532L71.1846 766.827L70.4016 765.178L69.5587 763.584L68.6526 762.042Z" fill="#597D64"/>
<ellipse cx="93.477" cy="745.942" rx="6.76335" ry="5.94777" transform="rotate(-85.9405 93.477 745.942)" fill="#FFF9EE"/>
<ellipse cx="83.1103" cy="693.428" rx="6.76335" ry="5.94777" transform="rotate(-85.9405 83.1103 693.428)" fill="#FFF9EE"/>
<ellipse cx="121.981" cy="634.547" rx="6.76335" ry="5.94777" transform="rotate(-85.9405 121.981 634.547)" fill="#FFF9EE"/>
<ellipse cx="222.338" cy="580.03" rx="6.76335" ry="5.94777" transform="rotate(-85.9405 222.338 580.03)" fill="#FFF9EE"/>
<ellipse cx="161.662" cy="732.289" rx="6.76335" ry="5.94777" transform="rotate(-85.9405 161.662 732.289)" fill="#FFF9EE"/>
<ellipse cx="201.642" cy="764.713" rx="6.76335" ry="5.94777" transform="rotate(-85.9405 201.642 764.713)" fill="#FFF9EE"/>
<ellipse cx="247.731" cy="756.889" rx="6.76335" ry="5.94777" transform="rotate(-85.9405 247.731 756.889)" fill="#FFF9EE"/>
<ellipse cx="166.246" cy="576.049" rx="6.76335" ry="5.94777" transform="rotate(-85.9405 166.246 576.049)" fill="#FFF9EE"/>
<ellipse cx="283.124" cy="670.64" rx="6.76335" ry="5.94777" transform="rotate(-85.9405 283.124 670.64)" fill="#FFF9EE"/>
<ellipse cx="231.225" cy="653.396" rx="6.76335" ry="5.94777" transform="rotate(-85.9405 231.225 653.396)" fill="#FFF9EE"/>
<ellipse cx="225.324" cy="705.987" rx="6.76335" ry="5.94777" transform="rotate(-85.9405 225.324 705.987)" fill="#FFF9EE"/>
<ellipse cx="278.332" cy="814.537" rx="6.76335" ry="5.94777" transform="rotate(-85.9405 278.332 814.537)" fill="#FFF9EE"/>
<ellipse cx="302.919" cy="758.34" rx="6.76335" ry="5.94777" transform="rotate(-85.9405 302.919 758.34)" fill="#FFF9EE"/>
<ellipse cx="91.8156" cy="570.767" rx="6.76335" ry="5.94777" transform="rotate(-85.9405 91.8156 570.767)" fill="#FFF9EE"/>
<ellipse cx="139.941" cy="549.526" rx="6.76335" ry="5.94777" transform="rotate(-85.9405 139.941 549.526)" fill="#FFF9EE"/>
<ellipse cx="157.177" cy="658.003" rx="6.76335" ry="5.94777" transform="rotate(-85.9405 157.177 658.003)" fill="#FFF9EE"/>
<ellipse cx="57.1194" cy="647.203" rx="6.76335" ry="5.94777" transform="rotate(-85.9405 57.1194 647.203)" fill="#FFF9EE"/>
<ellipse cx="115.566" cy="717.306" rx="3.6891" ry="3.24424" transform="rotate(-85.9405 115.566 717.306)" fill="#FFF9EE"/>
<ellipse cx="109.652" cy="686.066" rx="3.6891" ry="3.78494" transform="rotate(-85.9405 109.652 686.066)" fill="#FFF9EE"/>
<ellipse cx="132.759" cy="650.722" rx="3.6891" ry="3.78494" transform="rotate(-85.9405 132.759 650.722)" fill="#FFF9EE"/>
<ellipse cx="192.542" cy="617.981" rx="3.6891" ry="3.78494" transform="rotate(-85.9405 192.542 617.981)" fill="#FFF9EE"/>
<ellipse cx="156.261" cy="709.099" rx="3.6891" ry="3.24424" transform="rotate(-85.9405 156.261 709.099)" fill="#FFF9EE"/>
<ellipse cx="180.392" cy="728.07" rx="3.6891" ry="3.78494" transform="rotate(-85.9405 180.392 728.07)" fill="#FFF9EE"/>
<ellipse cx="207.795" cy="723.851" rx="3.6891" ry="3.78494" transform="rotate(-85.9405 207.795 723.851)" fill="#FFF9EE"/>
<ellipse cx="159.102" cy="615.608" rx="3.6891" ry="3.78494" transform="rotate(-85.9405 159.102 615.608)" fill="#FFF9EE"/>
<ellipse cx="228.797" cy="672.332" rx="3.6891" ry="3.78494" transform="rotate(-85.9405 228.797 672.332)" fill="#FFF9EE"/>
<ellipse cx="197.541" cy="662.1" rx="4.30395" ry="3.24424" transform="rotate(-85.9405 197.541 662.1)" fill="#FFF9EE"/>
<ellipse cx="194.243" cy="693.302" rx="3.6891" ry="3.24424" transform="rotate(-85.9405 194.243 693.302)" fill="#FFF9EE"/>
<ellipse cx="225.983" cy="757.811" rx="4.30395" ry="3.78494" transform="rotate(-85.9405 225.983 757.811)" fill="#FFF9EE"/>
<ellipse cx="240.286" cy="724.308" rx="4.30395" ry="3.78494" transform="rotate(-85.9405 240.286 724.308)" fill="#FFF9EE"/>
<ellipse cx="114.875" cy="612.469" rx="3.6891" ry="3.78494" transform="rotate(-85.9405 114.875 612.469)" fill="#FFF9EE"/>
<ellipse cx="143.383" cy="600.315" rx="4.30395" ry="3.24424" transform="rotate(-85.9405 143.383 600.315)" fill="#FFF9EE"/>
<ellipse cx="153.462" cy="664.519" rx="3.6891" ry="3.78494" transform="rotate(-85.9405 153.462 664.519)" fill="#FFF9EE"/>
<ellipse cx="94.2645" cy="658.469" rx="4.30395" ry="3.78494" transform="rotate(-85.9405 94.2645 658.469)" fill="#FFF9EE"/>
<path fill-rule="evenodd" clip-rule="evenodd" d="M1107.31 141.844L1106.65 143.289L1105.98 144.725L1105.3 146.151L1104.62 147.569L1103.92 148.978L1103.22 150.378L1102.51 151.77L1101.8 153.154L1101.07 154.53L1100.35 155.898L1099.61 157.258L1098.87 158.61L1098.12 159.955L1097.37 161.292L1096.61 162.621L1095.84 163.942L1095.06 165.254L1094.28 166.558L1093.48 167.853L1092.67 169.137L1091.85 170.41L1091.01 171.671L1090.16 172.918L1089.29 174.151L1088.4 175.368L1087.49 176.568L1086.55 177.749L1085.59 178.91L1084.61 180.048L1083.6 181.163L1082.57 182.253L1081.5 183.316L1080.41 184.351L1079.29 185.356L1078.14 186.33L1076.97 187.271L1075.76 188.18L1074.53 189.053L1073.27 189.891L1071.98 190.693L1070.67 191.456L1069.33 192.181L1067.96 192.866L1066.57 193.511L1065.16 194.115L1063.73 194.678L1062.27 195.199L1060.8 195.678L1059.31 196.114L1057.8 196.509L1056.28 196.861L1054.74 197.172L1053.2 197.442L1051.64 197.671L1050.07 197.86L1048.5 198.01L1046.93 198.123L1045.35 198.199L1043.78 198.241L1042.2 198.249L1040.64 198.226L1039.07 198.174L1037.52 198.094L1035.97 197.99L1034.44 197.862L1032.92 197.715L1031.41 197.55L1029.92 197.37L1028.45 197.178L1027 196.977L1025.57 196.77L1024.16 196.56L1022.78 196.349L1021.42 196.142L1020.08 195.94L1018.77 195.747L1017.49 195.567L1016.23 195.402L1015 195.254L1013.79 195.128L1012.61 195.025L1011.46 194.949L1010.33 194.902L1009.22 194.886L1008.14 194.905L1007.09 194.96L1006.05 195.053L1005.04 195.186L1004.04 195.361L1003.07 195.58L1002.11 195.843L1001.17 196.153L1000.24 196.509L999.323 196.914L998.416 197.366L997.518 197.866L996.626 198.415L995.739 199.012L994.854 199.656L993.97 200.347L993.085 201.083L992.196 201.864L991.302 202.687L990.4 203.55L989.49 204.452L988.568 205.391L987.634 206.363L986.685 207.366L985.721 208.398L984.74 209.454L983.74 210.533L982.72 211.632L981.68 212.747L980.618 213.876L979.534 215.016L978.427 216.164L977.296 217.317L976.141 218.473L974.962 219.629L973.757 220.782L972.529 221.93L971.275 223.07L969.996 224.199L968.693 225.315L967.365 226.416L966.014 227.498L964.638 228.561L963.239 229.603L961.818 230.62L960.374 231.612L958.909 232.576L957.424 233.511L955.918 234.415L954.393 235.287L952.85 236.124L951.29 236.925L949.714 237.689L948.123 238.414L946.517 239.098L944.899 239.74L943.27 240.338L941.63 240.892L939.982 241.4L938.326 241.861L936.663 242.274L934.997 242.637L933.326 242.951L931.654 243.214L929.982 243.425L928.311 243.585L926.642 243.692L924.977 243.747L923.318 243.749L921.665 243.698L920.021 243.594L918.386 243.437L916.762 243.228L915.15 242.967L913.552 242.654L911.968 242.29L910.4 241.875L908.849 241.411L907.316 240.898L905.801 240.336L904.307 239.727L902.833 239.072L901.38 238.372L899.95 237.628L898.543 236.841L897.16 236.012L895.801 235.143L894.466 234.236L893.156 233.29L891.872 232.308L890.614 231.292L889.382 230.242L888.176 229.159L886.997 228.047L885.844 226.905L884.717 225.735L883.617 224.539L882.543 223.317L881.495 222.073L880.474 220.806L879.478 219.518L878.508 218.21L877.563 216.885L876.643 215.542L875.748 214.183L874.878 212.81L874.031 211.423L873.208 210.023L872.408 208.611L871.632 207.189L870.878 205.757L870.146 204.315L869.437 202.865L868.75 201.408L868.085 199.943L867.441 198.472L866.818 196.994L866.217 195.511L865.637 194.024L865.077 192.532L864.538 191.036L864.019 189.536L863.519 188.035L863.038 186.531L862.574 185.027L862.128 183.522L861.698 182.017L861.284 180.514L860.884 179.012L860.497 177.513L860.121 176.016L859.757 174.524L859.402 173.035L859.055 171.552L858.714 170.074L858.378 168.602L858.046 167.136L857.716 165.677L857.385 164.225L857.054 162.78L856.719 161.343L856.38 159.913L856.035 158.49L855.684 157.075L855.325 155.666L854.957 154.263L854.58 152.866L854.194 151.475L853.797 150.088L853.39 148.705L852.973 147.325L852.546 145.947L852.109 144.57L851.663 143.194L851.209 141.818L850.748 140.441L850.28 139.061L849.807 137.679L849.33 136.293L848.851 134.903L848.372 133.507L847.894 132.105L847.418 130.697L846.948 129.282L846.485 127.859L846.032 126.429L845.59 124.99L845.162 123.544L844.75 122.088L844.357 120.625L843.986 119.153L843.637 117.672L843.315 116.185L843.021 114.69L842.758 113.188L842.528 111.68L842.334 110.166L842.177 108.649L842.06 107.127L841.984 105.603L841.953 104.078L841.966 102.553L842.028 101.029L842.137 99.5072L842.298 97.9895L842.509 96.4773L842.773 94.9721L843.091 93.4754L843.462 91.9889L843.889 90.5141L844.37 89.0527L844.907 87.6063L845.5 86.1766L846.147 84.765L846.849 83.3732L847.605 82.0027L848.415 80.655L849.277 79.3314L850.19 78.0334L851.154 76.7621L852.166 75.5189L853.225 74.3047L854.329 73.1206L855.477 71.9675L856.666 70.8462L857.895 69.7574L859.16 68.7018L860.461 67.6797L861.794 66.6915L863.158 65.7375L864.549 64.8177L865.965 63.9321L867.403 63.0805L868.861 62.2627L870.336 61.4783L871.825 60.7265L873.325 60.0067L874.834 59.318L876.349 58.6594L877.866 58.0297L879.383 57.4276L880.898 56.8516L882.406 56.3002L883.907 55.7718L885.396 55.2644L886.871 54.7762L888.331 54.305L889.772 53.8489L891.192 53.4055L892.588 52.9724L893.96 52.5473L895.304 52.1277L896.619 51.711L897.904 51.2946L899.155 50.8759L900.374 50.4524L901.557 50.0213L902.705 49.5803L903.816 49.1269L904.89 48.6587L905.928 48.1734L906.928 47.6688L907.891 47.1428L908.818 46.5936L909.709 46.0193L910.565 45.4182L911.387 44.789L912.176 44.1303L912.934 43.4411L913.661 42.7204L914.36 41.9677L915.033 41.1825L915.682 40.3646L916.308 39.5141L916.915 38.6313L917.504 37.7167L918.078 36.7712L918.64 35.7956L919.191 34.7914L919.735 33.7599L920.275 32.703L920.812 31.6225L921.35 30.5206L921.89 29.3998L922.437 28.2624L922.991 27.1113L923.555 25.9494L924.132 24.7796L924.724 23.6052L925.332 22.4294L925.96 21.2557L926.607 20.0874L927.276 18.9281L927.969 17.7815L928.687 16.651L929.43 15.5403L930.201 14.4529L930.998 13.3926L931.824 12.3626L932.678 11.3665L933.56 10.4077L934.471 9.48931L935.41 8.61452L936.378 7.78629L937.372 7.00744L938.394 6.28062L939.441 5.60828L940.513 4.99268L941.608 4.43586L942.726 3.93962L943.865 3.50553L945.023 3.13489L946.199 2.82875L947.39 2.58789L948.596 2.41276L949.813 2.30357L951.041 2.26019L952.277 2.28219L953.519 2.36885L954.765 2.51917L956.013 2.73185L957.261 3.00533L958.507 3.33776L959.749 3.72707L960.986 4.1709L962.215 4.66668L963.435 5.21161L964.644 5.8026L965.841 6.43633L967.025 7.10925L968.193 7.81764L969.346 8.5576L970.483 9.32512L971.602 10.1161L972.703 10.9264L973.786 11.7518L974.85 12.5881L975.896 13.4312L976.924 14.277L977.933 15.1215L978.924 15.961L979.899 16.7918L980.857 17.6105L981.8 18.4138L982.728 19.1988L983.643 19.9628L984.545 20.7034L985.437 21.4184L986.318 22.1059L987.192 22.7638L988.058 23.3904L988.919 23.9841L989.776 24.5436L990.63 25.0675L991.484 25.5549L992.339 26.0048L993.196 26.4167L994.057 26.7899L994.923 27.1243L995.797 27.4198L996.68 27.6765L997.573 27.8945L998.477 28.0745L999.395 28.217L1000.33 28.3227L1001.27 28.3927L1002.24 28.4279L1003.22 28.4297L1004.22 28.3993L1005.24 28.3383L1006.29 28.2483L1007.35 28.1311L1008.44 27.9884L1009.55 27.8222L1010.68 27.6345L1011.84 27.4276L1013.02 27.2035L1014.22 26.9646L1015.45 26.7132L1016.71 26.4516L1017.98 26.1823L1019.28 25.9077L1020.61 25.6302L1021.95 25.3524L1023.32 25.0767L1024.71 24.8055L1026.11 24.5412L1027.54 24.2863L1028.99 24.043L1030.45 23.8136L1031.93 23.6004L1033.42 23.4055L1034.92 23.2309L1036.44 23.0786L1037.96 22.9505L1039.5 22.8483L1041.04 22.7736L1042.59 22.7281L1044.14 22.7131L1045.7 22.7298L1047.25 22.7795L1048.8 22.8631L1050.36 22.9817L1051.91 23.1358L1053.45 23.3262L1054.99 23.5534L1056.52 23.8177L1058.04 24.1195L1059.55 24.4589L1061.05 24.836L1062.54 25.2508L1064.01 25.7032L1065.47 26.1929L1066.91 26.7197L1068.34 27.2832L1069.75 27.8829L1071.14 28.5183L1072.52 29.1888L1073.87 29.8939L1075.21 30.6328L1076.52 31.4048L1077.82 32.209L1079.09 33.0444L1080.34 33.9101L1081.58 34.8048L1082.79 35.7275L1083.99 36.6769L1085.17 37.652L1086.32 38.6516L1087.47 39.6746L1088.59 40.72L1089.7 41.7868L1090.79 42.8742L1091.87 43.9813L1092.94 45.1075L1093.99 46.2523L1095.03 47.415L1096.05 48.5954L1097.06 49.7932L1098.05 51.0083L1099.04 52.2406L1100 53.4901L1100.95 54.7567L1101.88 56.0405L1102.8 57.3413L1103.69 58.6591L1104.57 59.9938L1105.42 61.3453L1106.26 62.7134L1107.07 64.0981L1107.86 65.499L1108.62 66.9159L1109.36 68.3487L1110.07 69.7969L1110.75 71.2603L1111.41 72.7385L1112.03 74.231L1112.63 75.7374L1113.19 77.2571L1113.72 78.7895L1114.22 80.3342L1114.69 81.8903L1115.12 83.4573L1115.51 85.0344L1115.87 86.6208L1116.19 88.2158L1116.47 89.8185L1116.72 91.4282L1116.93 93.0438L1117.1 94.6646L1117.24 96.2897L1117.33 97.9182L1117.39 99.5491L1117.41 101.182L1117.4 102.815L1117.35 104.448L1117.26 106.079L1117.13 107.709L1116.97 109.336L1116.78 110.96L1116.55 112.579L1116.29 114.193L1116 115.802L1115.67 117.404L1115.32 118.999L1114.94 120.586L1114.53 122.166L1114.1 123.737L1113.64 125.299L1113.15 126.852L1112.65 128.395L1112.12 129.929L1111.58 131.453L1111.01 132.968L1110.43 134.472L1109.84 135.966L1109.22 137.45L1108.6 138.924L1107.96 140.389L1107.31 141.844Z" fill="#284A34"/>
<circle cx="881.291" cy="5.81651" r="6.02178" fill="#FFF9EE"/>
<circle cx="982.019" cy="26.6191" r="6.02178" fill="#FFF9EE"/>
<circle cx="897.714" cy="73.6983" r="6.02178" fill="#FFF9EE"/>
<circle cx="871.437" cy="116.398" r="6.02178" fill="#FFF9EE"/>
<circle cx="881.291" cy="162.383" r="6.02178" fill="#FFF9EE"/>
<circle cx="960.121" cy="191.944" r="6.02178" fill="#FFF9EE"/>
<circle cx="972.165" cy="138.296" r="6.02178" fill="#FFF9EE"/>
<circle cx="925.086" cy="136.106" r="6.02178" fill="#FFF9EE"/>
<circle cx="832.022" cy="197.419" r="6.02178" fill="#FFF9EE"/>
<circle cx="883.481" cy="218.221" r="6.02178" fill="#FFF9EE"/>
<circle cx="963.406" cy="63.8446" r="6.02178" fill="#FFF9EE"/>
<circle cx="908.115" cy="26.0716" r="3.28461" fill="#FFF9EE"/>
<ellipse cx="935.487" cy="17.8601" rx="3.28461" ry="3.83204" fill="#FFF9EE"/>
<ellipse cx="968.333" cy="38.6626" rx="3.28461" ry="3.83204" fill="#FFF9EE"/>
<ellipse cx="1001.18" cy="96.6906" rx="3.28461" ry="3.83204" fill="#FFF9EE"/>
<circle cx="917.969" cy="66.5817" r="3.28461" fill="#FFF9EE"/>
<ellipse cx="902.641" cy="92.3112" rx="3.28461" ry="3.83204" fill="#FFF9EE"/>
<ellipse cx="908.115" cy="119.683" rx="3.28461" ry="3.83204" fill="#FFF9EE"/>
<ellipse cx="1001.18" cy="62.7497" rx="3.28461" ry="3.83204" fill="#FFF9EE"/>
<ellipse cx="955.194" cy="137.201" rx="3.28461" ry="3.83204" fill="#FFF9EE"/>
<ellipse cx="962.311" cy="104.902" rx="3.83204" ry="3.28461" fill="#FFF9EE"/>
<circle cx="934.392" cy="103.807" r="3.28461" fill="#FFF9EE"/>
<circle cx="879.101" cy="140.485" r="3.83204" fill="#FFF9EE"/>
<circle cx="909.757" cy="152.529" r="3.83204" fill="#FFF9EE"/>
<ellipse cx="1001.18" cy="17.8601" rx="3.28461" ry="3.83204" fill="#FFF9EE"/>
<ellipse cx="957.384" cy="60.5599" rx="3.28461" ry="3.83204" fill="#FFF9EE"/>
<circle cx="959.026" cy="0.342232" r="3.83204" fill="#FFF9EE"/>
</g>
</g>
<defs>
<clipPath id="clip0_65_3">
<rect width="1009" height="819" fill="white"/>
</clipPath>
</defs>
</svg>
